<?xml version="1.0" encoding="utf-8" standalone="no"?>
<!DOCTYPE svg PUBLIC "-//W3C//DTD SVG 1.1//EN"
  "http://www.w3.org/Graphics/SVG/1.1/DTD/svg11.dtd">
<svg xmlns:xlink="http://www.w3.org/1999/xlink" width="360pt" height="360pt" viewBox="0 0 360 360" xmlns="http://www.w3.org/2000/svg" version="1.1">
 <metadata>
  <rdf:RDF xmlns:dc="http://purl.org/dc/elements/1.1/" xmlns:cc="http://creativecommons.org/ns#" xmlns:rdf="http://www.w3.org/1999/02/22-rdf-syntax-ns#">
   <cc:Work>
    <dc:type rdf:resource="http://purl.org/dc/dcmitype/StillImage"/>
    <dc:date>2021-12-02T19:17:30.853757</dc:date>
    <dc:format>image/svg+xml</dc:format>
    <dc:creator>
     <cc:Agent>
      <dc:title>Matplotlib v3.5.0, https://matplotlib.org/</dc:title>
     </cc:Agent>
    </dc:creator>
   </cc:Work>
  </rdf:RDF>
 </metadata>
 <defs>
  <style type="text/css">*{stroke-linejoin: round; stroke-linecap: butt}</style>
 </defs>
 <g id="figure_1">
  <g id="patch_1">
   <path d="M 0 360 
L 360 360 
L 360 0 
L 0 0 
L 0 360 
z
" style="fill: none"/>
  </g>
  <g id="axes_1">
   <g id="patch_2">
    <path d="M 45 315 
L 324 315 
L 324 43.2 
L 45 43.2 
z
" style="fill: #ffffff"/>
   </g>
   <g id="matplotlib.axis_1">
    <g id="xtick_1">
     <g id="line2d_1">
      <defs>
       <path id="m228ceae956" d="M 0 0 
L 0 3.5 
" style="stroke: #000000; stroke-width: 0.8"/>
      </defs>
      <g>
       <use xlink:href="#m228ceae956" x="138" y="315" style="stroke: #000000; stroke-width: 0.8"/>
      </g>
     </g>
     <g id="text_1">
      <text style="font: 10px 'sans-serif'; text-anchor: middle" x="138" y="329.598437" transform="rotate(-0, 138, 329.598437)">HIC</text>
     </g>
    </g>
    <g id="xtick_2">
     <g id="line2d_2">
      <g>
       <use xlink:href="#m228ceae956" x="231" y="315" style="stroke: #000000; stroke-width: 0.8"/>
      </g>
     </g>
     <g id="text_2">
      <text style="font: 10px 'sans-serif'; text-anchor: middle" x="231" y="329.598437" transform="rotate(-0, 231, 329.598437)">LMIC</text>
     </g>
    </g>
   </g>
   <g id="matplotlib.axis_2">
    <g id="ytick_1">
     <g id="line2d_3">
      <defs>
       <path id="m75c1491f31" d="M 0 0 
L -3.5 0 
" style="stroke: #000000; stroke-width: 0.8"/>
      </defs>
      <g>
       <use xlink:href="#m75c1491f31" x="45" y="311.264905" style="stroke: #000000; stroke-width: 0.8"/>
      </g>
     </g>
     <g id="text_3">
      <text style="font: 10px 'sans-serif'; text-anchor: end" x="38" y="315.064124" transform="rotate(-0, 38, 315.064124)">0</text>
     </g>
    </g>
    <g id="ytick_2">
     <g id="line2d_4">
      <g>
       <use xlink:href="#m75c1491f31" x="45" y="253.801903" style="stroke: #000000; stroke-width: 0.8"/>
      </g>
     </g>
     <g id="text_4">
      <text style="font: 10px 'sans-serif'; text-anchor: end" x="38" y="257.601121" transform="rotate(-0, 38, 257.601121)">20</text>
     </g>
    </g>
    <g id="ytick_3">
     <g id="line2d_5">
      <g>
       <use xlink:href="#m75c1491f31" x="45" y="196.338901" style="stroke: #000000; stroke-width: 0.8"/>
      </g>
     </g>
     <g id="text_5">
      <text style="font: 10px 'sans-serif'; text-anchor: end" x="38" y="200.138119" transform="rotate(-0, 38, 200.138119)">40</text>
     </g>
    </g>
    <g id="ytick_4">
     <g id="line2d_6">
      <g>
       <use xlink:href="#m75c1491f31" x="45" y="138.875899" style="stroke: #000000; stroke-width: 0.8"/>
      </g>
     </g>
     <g id="text_6">
      <text style="font: 10px 'sans-serif'; text-anchor: end" x="38" y="142.675117" transform="rotate(-0, 38, 142.675117)">60</text>
     </g>
    </g>
    <g id="ytick_5">
     <g id="line2d_7">
      <g>
       <use xlink:href="#m75c1491f31" x="45" y="81.412896" style="stroke: #000000; stroke-width: 0.8"/>
      </g>
     </g>
     <g id="text_7">
      <text style="font: 10px 'sans-serif'; text-anchor: end" x="38" y="85.212115" transform="rotate(-0, 38, 85.212115)">80</text>
     </g>
    </g>
    <g id="text_8">
     <text style="font: 10px 'sans-serif'; text-anchor: middle" x="19.195312" y="179.1" transform="rotate(-90, 19.195312, 179.1)">BZP-R (%)</text>
    </g>
   </g>
   <g id="line2d_8">
    <path d="M 217.05 124.510148 
" clip-path="url(#pdb254383d0)" style="fill: none; stroke: #0000ff; stroke-opacity: 0.2; stroke-width: 1.5; stroke-linecap: square"/>
    <defs>
     <path id="m2fcf5c2b8b" d="M 0 1.120752 
C 0.297227 1.120752 0.58232 1.002662 0.792491 0.792491 
C 1.002662 0.58232 1.120752 0.297227 1.120752 0 
C 1.120752 -0.297227 1.002662 -0.58232 0.792491 -0.792491 
C 0.58232 -1.002662 0.297227 -1.120752 0 -1.120752 
C -0.297227 -1.120752 -0.58232 -1.002662 -0.792491 -0.792491 
C -1.002662 -0.58232 -1.120752 -0.297227 -1.120752 0 
C -1.120752 0.297227 -1.002662 0.58232 -0.792491 0.792491 
C -0.58232 1.002662 -0.297227 1.120752 0 1.120752 
z
" style="stroke: #0000ff; stroke-opacity: 0.2"/>
    </defs>
    <g clip-path="url(#pdb254383d0)">
     <use xlink:href="#m2fcf5c2b8b" x="217.05" y="124.510148" style="fill: #0000ff; fill-opacity: 0.2; stroke: #0000ff; stroke-opacity: 0.2"/>
    </g>
   </g>
   <g id="line2d_9">
    <path d="M 244.95 173.3537 
" clip-path="url(#pdb254383d0)" style="fill: none; stroke: #ff00ff; stroke-opacity: 0.2; stroke-width: 1.5; stroke-linecap: square"/>
    <defs>
     <path id="mb450eb3aba" d="M 0 5.206074 
C 1.380667 5.206074 2.704971 4.657529 3.68125 3.68125 
C 4.657529 2.704971 5.206074 1.380667 5.206074 0 
C 5.206074 -1.380667 4.657529 -2.704971 3.68125 -3.68125 
C 2.704971 -4.657529 1.380667 -5.206074 0 -5.206074 
C -1.380667 -5.206074 -2.704971 -4.657529 -3.68125 -3.68125 
C -4.657529 -2.704971 -5.206074 -1.380667 -5.206074 0 
C -5.206074 1.380667 -4.657529 2.704971 -3.68125 3.68125 
C -2.704971 4.657529 -1.380667 5.206074 0 5.206074 
z
" style="stroke: #ff00ff; stroke-opacity: 0.2"/>
    </defs>
    <g clip-path="url(#pdb254383d0)">
     <use xlink:href="#mb450eb3aba" x="244.95" y="173.3537" style="fill: #ff00ff; fill-opacity: 0.2; stroke: #ff00ff; stroke-opacity: 0.2"/>
    </g>
   </g>
   <g id="line2d_10">
    <path d="M 124.05 230.816702 
" clip-path="url(#pdb254383d0)" style="fill: none; stroke: #0000ff; stroke-opacity: 0.2; stroke-width: 1.5; stroke-linecap: square"/>
    <defs>
     <path id="mdaf9e3e7eb" d="M 0 4.555315 
C 1.208084 4.555315 2.36685 4.075338 3.221094 3.221094 
C 4.075338 2.36685 4.555315 1.208084 4.555315 0 
C 4.555315 -1.208084 4.075338 -2.36685 3.221094 -3.221094 
C 2.36685 -4.075338 1.208084 -4.555315 0 -4.555315 
C -1.208084 -4.555315 -2.36685 -4.075338 -3.221094 -3.221094 
C -4.075338 -2.36685 -4.555315 -1.208084 -4.555315 0 
C -4.555315 1.208084 -4.075338 2.36685 -3.221094 3.221094 
C -2.36685 4.075338 -1.208084 4.555315 0 4.555315 
z
" style="stroke: #0000ff; stroke-opacity: 0.2"/>
    </defs>
    <g clip-path="url(#pdb254383d0)">
     <use xlink:href="#mdaf9e3e7eb" x="124.05" y="230.816702" style="fill: #0000ff; fill-opacity: 0.2; stroke: #0000ff; stroke-opacity: 0.2"/>
    </g>
   </g>
   <g id="line2d_11">
    <path d="M 151.95 302.645455 
" clip-path="url(#pdb254383d0)" style="fill: none; stroke: #ff00ff; stroke-opacity: 0.2; stroke-width: 1.5; stroke-linecap: square"/>
    <defs>
     <path id="m6ad5f8528f" d="M 0 1.409978 
C 0.373931 1.409978 0.732596 1.261414 0.997005 0.997005 
C 1.261414 0.732596 1.409978 0.373931 1.409978 0 
C 1.409978 -0.373931 1.261414 -0.732596 0.997005 -0.997005 
C 0.732596 -1.261414 0.373931 -1.409978 0 -1.409978 
C -0.373931 -1.409978 -0.732596 -1.261414 -0.997005 -0.997005 
C -1.261414 -0.732596 -1.409978 -0.373931 -1.409978 0 
C -1.409978 0.373931 -1.261414 0.732596 -0.997005 0.997005 
C -0.732596 1.261414 -0.373931 1.409978 0 1.409978 
z
" style="stroke: #ff00ff; stroke-opacity: 0.2"/>
    </defs>
    <g clip-path="url(#pdb254383d0)">
     <use xlink:href="#m6ad5f8528f" x="151.95" y="302.645455" style="fill: #ff00ff; fill-opacity: 0.2; stroke: #ff00ff; stroke-opacity: 0.2"/>
    </g>
   </g>
   <g id="line2d_12">
    <path d="M 124.05 187.71945 
" clip-path="url(#pdb254383d0)" style="fill: none; stroke: #0000ff; stroke-opacity: 0.2; stroke-width: 1.5; stroke-linecap: square"/>
    <defs>
     <path id="mb315a94f1e" d="M 0 1.518438 
C 0.402695 1.518438 0.78895 1.358446 1.073698 1.073698 
C 1.358446 0.78895 1.518438 0.402695 1.518438 0 
C 1.518438 -0.402695 1.358446 -0.78895 1.073698 -1.073698 
C 0.78895 -1.358446 0.402695 -1.518438 0 -1.518438 
C -0.402695 -1.518438 -0.78895 -1.358446 -1.073698 -1.073698 
C -1.358446 -0.78895 -1.518438 -0.402695 -1.518438 0 
C -1.518438 0.402695 -1.358446 0.78895 -1.073698 1.073698 
C -0.78895 1.358446 -0.402695 1.518438 0 1.518438 
z
" style="stroke: #0000ff; stroke-opacity: 0.2"/>
    </defs>
    <g clip-path="url(#pdb254383d0)">
     <use xlink:href="#mb315a94f1e" x="124.05" y="187.71945" style="fill: #0000ff; fill-opacity: 0.2; stroke: #0000ff; stroke-opacity: 0.2"/>
    </g>
   </g>
   <g id="line2d_13">
    <path d="M 231 87.159197 
" clip-path="url(#pdb254383d0)" style="fill: none; stroke: #000000; stroke-opacity: 0.2; stroke-width: 1.5; stroke-linecap: square"/>
    <defs>
     <path id="mc940d3bda5" d="M 0 3.036876 
C 0.805389 3.036876 1.5779 2.716892 2.147396 2.147396 
C 2.716892 1.5779 3.036876 0.805389 3.036876 0 
C 3.036876 -0.805389 2.716892 -1.5779 2.147396 -2.147396 
C 1.5779 -2.716892 0.805389 -3.036876 0 -3.036876 
C -0.805389 -3.036876 -1.5779 -2.716892 -2.147396 -2.147396 
C -2.716892 -1.5779 -3.036876 -0.805389 -3.036876 0 
C -3.036876 0.805389 -2.716892 1.5779 -2.147396 2.147396 
C -1.5779 2.716892 -0.805389 3.036876 0 3.036876 
z
" style="stroke: #000000; stroke-opacity: 0.2"/>
    </defs>
    <g clip-path="url(#pdb254383d0)">
     <use xlink:href="#mc940d3bda5" x="231" y="87.159197" style="fill-opacity: 0.2; stroke: #000000; stroke-opacity: 0.2"/>
    </g>
   </g>
   <g id="line2d_14">
    <path d="M 124.05 265.294503 
" clip-path="url(#pdb254383d0)" style="fill: none; stroke: #0000ff; stroke-opacity: 0.2; stroke-width: 1.5; stroke-linecap: square"/>
    <defs>
     <path id="m62cca94f83" d="M 0 2.458424 
C 0.651982 2.458424 1.277347 2.199389 1.738368 1.738368 
C 2.199389 1.277347 2.458424 0.651982 2.458424 0 
C 2.458424 -0.651982 2.199389 -1.277347 1.738368 -1.738368 
C 1.277347 -2.199389 0.651982 -2.458424 0 -2.458424 
C -0.651982 -2.458424 -1.277347 -2.199389 -1.738368 -1.738368 
C -2.199389 -1.277347 -2.458424 -0.651982 -2.458424 0 
C -2.458424 0.651982 -2.199389 1.277347 -1.738368 1.738368 
C -1.277347 2.199389 -0.651982 2.458424 0 2.458424 
z
" style="stroke: #0000ff; stroke-opacity: 0.2"/>
    </defs>
    <g clip-path="url(#pdb254383d0)">
     <use xlink:href="#m62cca94f83" x="124.05" y="265.294503" style="fill: #0000ff; fill-opacity: 0.2; stroke: #0000ff; stroke-opacity: 0.2"/>
    </g>
   </g>
   <g id="line2d_15">
    <path d="M 151.95 268.167653 
" clip-path="url(#pdb254383d0)" style="fill: none; stroke: #ff00ff; stroke-opacity: 0.2; stroke-width: 1.5; stroke-linecap: square"/>
    <defs>
     <path id="me0fd2d1efd" d="M 0 9.869848 
C 2.617514 9.869848 5.128174 8.829899 6.979037 6.979037 
C 8.829899 5.128174 9.869848 2.617514 9.869848 0 
C 9.869848 -2.617514 8.829899 -5.128174 6.979037 -6.979037 
C 5.128174 -8.829899 2.617514 -9.869848 0 -9.869848 
C -2.617514 -9.869848 -5.128174 -8.829899 -6.979037 -6.979037 
C -8.829899 -5.128174 -9.869848 -2.617514 -9.869848 0 
C -9.869848 2.617514 -8.829899 5.128174 -6.979037 6.979037 
C -5.128174 8.829899 -2.617514 9.869848 0 9.869848 
z
" style="stroke: #ff00ff; stroke-opacity: 0.2"/>
    </defs>
    <g clip-path="url(#pdb254383d0)">
     <use xlink:href="#me0fd2d1efd" x="151.95" y="268.167653" style="fill: #ff00ff; fill-opacity: 0.2; stroke: #ff00ff; stroke-opacity: 0.2"/>
    </g>
   </g>
   <g id="line2d_16">
    <path d="M 244.95 156.114799 
" clip-path="url(#pdb254383d0)" style="fill: none; stroke: #ff00ff; stroke-opacity: 0.2; stroke-width: 1.5; stroke-linecap: square"/>
    <defs>
     <path id="m961597b665" d="M 0 1.807664 
C 0.479398 1.807664 0.939226 1.617198 1.278212 1.278212 
C 1.617198 0.939226 1.807664 0.479398 1.807664 0 
C 1.807664 -0.479398 1.617198 -0.939226 1.278212 -1.278212 
C 0.939226 -1.617198 0.479398 -1.807664 0 -1.807664 
C -0.479398 -1.807664 -0.939226 -1.617198 -1.278212 -1.278212 
C -1.617198 -0.939226 -1.807664 -0.479398 -1.807664 0 
C -1.807664 0.479398 -1.617198 0.939226 -1.278212 1.278212 
C -0.939226 1.617198 -0.479398 1.807664 0 1.807664 
z
" style="stroke: #ff00ff; stroke-opacity: 0.2"/>
    </defs>
    <g clip-path="url(#pdb254383d0)">
     <use xlink:href="#m961597b665" x="244.95" y="156.114799" style="fill: #ff00ff; fill-opacity: 0.2; stroke: #ff00ff; stroke-opacity: 0.2"/>
    </g>
   </g>
   <g id="line2d_17">
    <path d="M 138 187.71945 
" clip-path="url(#pdb254383d0)" style="fill: none; stroke: #000000; stroke-opacity: 0.2; stroke-width: 1.5; stroke-linecap: square"/>
    <defs>
     <path id="mc06b5578f9" d="M 0 18.402025 
C 4.880274 18.402025 9.561322 16.463071 13.012196 13.012196 
C 16.463071 9.561322 18.402025 4.880274 18.402025 0 
C 18.402025 -4.880274 16.463071 -9.561322 13.012196 -13.012196 
C 9.561322 -16.463071 4.880274 -18.402025 0 -18.402025 
C -4.880274 -18.402025 -9.561322 -16.463071 -13.012196 -13.012196 
C -16.463071 -9.561322 -18.402025 -4.880274 -18.402025 0 
C -18.402025 4.880274 -16.463071 9.561322 -13.012196 13.012196 
C -9.561322 16.463071 -4.880274 18.402025 0 18.402025 
z
" style="stroke: #000000; stroke-opacity: 0.2"/>
    </defs>
    <g clip-path="url(#pdb254383d0)">
     <use xlink:href="#mc06b5578f9" x="138" y="187.71945" style="fill-opacity: 0.2; stroke: #000000; stroke-opacity: 0.2"/>
    </g>
   </g>
   <g id="line2d_18">
    <path d="M 217.05 242.309302 
" clip-path="url(#pdb254383d0)" style="fill: none; stroke: #0000ff; stroke-opacity: 0.2; stroke-width: 1.5; stroke-linecap: square"/>
    <defs>
     <path id="m677963128b" d="M 0 2.85611 
C 0.757449 2.85611 1.483977 2.555172 2.019575 2.019575 
C 2.555172 1.483977 2.85611 0.757449 2.85611 0 
C 2.85611 -0.757449 2.555172 -1.483977 2.019575 -2.019575 
C 1.483977 -2.555172 0.757449 -2.85611 0 -2.85611 
C -0.757449 -2.85611 -1.483977 -2.555172 -2.019575 -2.019575 
C -2.555172 -1.483977 -2.85611 -0.757449 -2.85611 0 
C -2.85611 0.757449 -2.555172 1.483977 -2.019575 2.019575 
C -1.483977 2.555172 -0.757449 2.85611 0 2.85611 
z
" style="stroke: #0000ff; stroke-opacity: 0.2"/>
    </defs>
    <g clip-path="url(#pdb254383d0)">
     <use xlink:href="#m677963128b" x="217.05" y="242.309302" style="fill: #0000ff; fill-opacity: 0.2; stroke: #0000ff; stroke-opacity: 0.2"/>
    </g>
   </g>
   <g id="line2d_19">
    <path d="M 244.95 271.040803 
" clip-path="url(#pdb254383d0)" style="fill: none; stroke: #ff00ff; stroke-opacity: 0.2; stroke-width: 1.5; stroke-linecap: square"/>
    <defs>
     <path id="m5381bd22d0" d="M 0 4.338395 
C 1.150556 4.338395 2.254143 3.881274 3.067708 3.067708 
C 3.881274 2.254143 4.338395 1.150556 4.338395 0 
C 4.338395 -1.150556 3.881274 -2.254143 3.067708 -3.067708 
C 2.254143 -3.881274 1.150556 -4.338395 0 -4.338395 
C -1.150556 -4.338395 -2.254143 -3.881274 -3.067708 -3.067708 
C -3.881274 -2.254143 -4.338395 -1.150556 -4.338395 0 
C -4.338395 1.150556 -3.881274 2.254143 -3.067708 3.067708 
C -2.254143 3.881274 -1.150556 4.338395 0 4.338395 
z
" style="stroke: #ff00ff; stroke-opacity: 0.2"/>
    </defs>
    <g clip-path="url(#pdb254383d0)">
     <use xlink:href="#m5381bd22d0" x="244.95" y="271.040803" style="fill: #ff00ff; fill-opacity: 0.2; stroke: #ff00ff; stroke-opacity: 0.2"/>
    </g>
   </g>
   <g id="line2d_20">
    <path d="M 244.95 259.548203 
" clip-path="url(#pdb254383d0)" style="fill: none; stroke: #ff00ff; stroke-opacity: 0.2; stroke-width: 1.5; stroke-linecap: square"/>
    <defs>
     <path id="m2d6c882da6" d="M 0 5.097614 
C 1.351903 5.097614 2.648618 4.560497 3.604557 3.604557 
C 4.560497 2.648618 5.097614 1.351903 5.097614 0 
C 5.097614 -1.351903 4.560497 -2.648618 3.604557 -3.604557 
C 2.648618 -4.560497 1.351903 -5.097614 0 -5.097614 
C -1.351903 -5.097614 -2.648618 -4.560497 -3.604557 -3.604557 
C -4.560497 -2.648618 -5.097614 -1.351903 -5.097614 0 
C -5.097614 1.351903 -4.560497 2.648618 -3.604557 3.604557 
C -2.648618 4.560497 -1.351903 5.097614 0 5.097614 
z
" style="stroke: #ff00ff; stroke-opacity: 0.2"/>
    </defs>
    <g clip-path="url(#pdb254383d0)">
     <use xlink:href="#m2d6c882da6" x="244.95" y="259.548203" style="fill: #ff00ff; fill-opacity: 0.2; stroke: #ff00ff; stroke-opacity: 0.2"/>
    </g>
   </g>
   <g id="line2d_21">
    <path d="M 217.05 202.085201 
" clip-path="url(#pdb254383d0)" style="fill: none; stroke: #0000ff; stroke-opacity: 0.2; stroke-width: 1.5; stroke-linecap: square"/>
    <defs>
     <path id="me47ff3ff79" d="M 0 4.374548 
C 1.160144 4.374548 2.272927 3.913618 3.093273 3.093273 
C 3.913618 2.272927 4.374548 1.160144 4.374548 0 
C 4.374548 -1.160144 3.913618 -2.272927 3.093273 -3.093273 
C 2.272927 -3.913618 1.160144 -4.374548 0 -4.374548 
C -1.160144 -4.374548 -2.272927 -3.913618 -3.093273 -3.093273 
C -3.913618 -2.272927 -4.374548 -1.160144 -4.374548 0 
C -4.374548 1.160144 -3.913618 2.272927 -3.093273 3.093273 
C -2.272927 3.913618 -1.160144 4.374548 0 4.374548 
z
" style="stroke: #0000ff; stroke-opacity: 0.2"/>
    </defs>
    <g clip-path="url(#pdb254383d0)">
     <use xlink:href="#me47ff3ff79" x="217.05" y="202.085201" style="fill: #0000ff; fill-opacity: 0.2; stroke: #0000ff; stroke-opacity: 0.2"/>
    </g>
   </g>
   <g id="line2d_22">
    <path d="M 217.05 130.256448 
" clip-path="url(#pdb254383d0)" style="fill: none; stroke: #0000ff; stroke-opacity: 0.2; stroke-width: 1.5; stroke-linecap: square"/>
    <defs>
     <path id="m91759319b4" d="M 0 4.302242 
C 1.140968 4.302242 2.235358 3.84893 3.042144 3.042144 
C 3.84893 2.235358 4.302242 1.140968 4.302242 0 
C 4.302242 -1.140968 3.84893 -2.235358 3.042144 -3.042144 
C 2.235358 -3.84893 1.140968 -4.302242 0 -4.302242 
C -1.140968 -4.302242 -2.235358 -3.84893 -3.042144 -3.042144 
C -3.84893 -2.235358 -4.302242 -1.140968 -4.302242 0 
C -4.302242 1.140968 -3.84893 2.235358 -3.042144 3.042144 
C -2.235358 3.84893 -1.140968 4.302242 0 4.302242 
z
" style="stroke: #0000ff; stroke-opacity: 0.2"/>
    </defs>
    <g clip-path="url(#pdb254383d0)">
     <use xlink:href="#m91759319b4" x="217.05" y="130.256448" style="fill: #0000ff; fill-opacity: 0.2; stroke: #0000ff; stroke-opacity: 0.2"/>
    </g>
   </g>
   <g id="line2d_23">
    <path d="M 151.95 210.704651 
" clip-path="url(#pdb254383d0)" style="fill: none; stroke: #ff00ff; stroke-opacity: 0.2; stroke-width: 1.5; stroke-linecap: square"/>
    <defs>
     <path id="m94d61f7906" d="M 0 8.67679 
C 2.301111 8.67679 4.508285 7.762548 6.135417 6.135417 
C 7.762548 4.508285 8.67679 2.301111 8.67679 0 
C 8.67679 -2.301111 7.762548 -4.508285 6.135417 -6.135417 
C 4.508285 -7.762548 2.301111 -8.67679 0 -8.67679 
C -2.301111 -8.67679 -4.508285 -7.762548 -6.135417 -6.135417 
C -7.762548 -4.508285 -8.67679 -2.301111 -8.67679 0 
C -8.67679 2.301111 -7.762548 4.508285 -6.135417 6.135417 
C -4.508285 7.762548 -2.301111 8.67679 0 8.67679 
z
" style="stroke: #ff00ff; stroke-opacity: 0.2"/>
    </defs>
    <g clip-path="url(#pdb254383d0)">
     <use xlink:href="#m94d61f7906" x="151.95" y="210.704651" style="fill: #ff00ff; fill-opacity: 0.2; stroke: #ff00ff; stroke-opacity: 0.2"/>
    </g>
   </g>
   <g id="line2d_24">
    <path d="M 244.95 204.958351 
" clip-path="url(#pdb254383d0)" style="fill: none; stroke: #ff00ff; stroke-opacity: 0.2; stroke-width: 1.5; stroke-linecap: square"/>
    <defs>
     <path id="mb25e3c7c6e" d="M 0 11.930586 
C 3.164028 11.930586 6.198892 10.673504 8.436198 8.436198 
C 10.673504 6.198892 11.930586 3.164028 11.930586 0 
C 11.930586 -3.164028 10.673504 -6.198892 8.436198 -8.436198 
C 6.198892 -10.673504 3.164028 -11.930586 0 -11.930586 
C -3.164028 -11.930586 -6.198892 -10.673504 -8.436198 -8.436198 
C -10.673504 -6.198892 -11.930586 -3.164028 -11.930586 0 
C -11.930586 3.164028 -10.673504 6.198892 -8.436198 8.436198 
C -6.198892 10.673504 -3.164028 11.930586 0 11.930586 
z
" style="stroke: #ff00ff; stroke-opacity: 0.2"/>
    </defs>
    <g clip-path="url(#pdb254383d0)">
     <use xlink:href="#mb25e3c7c6e" x="244.95" y="204.958351" style="fill: #ff00ff; fill-opacity: 0.2; stroke: #ff00ff; stroke-opacity: 0.2"/>
    </g>
   </g>
   <g id="line2d_25">
    <path d="M 244.95 239.436152 
" clip-path="url(#pdb254383d0)" style="fill: none; stroke: #ff00ff; stroke-opacity: 0.2; stroke-width: 1.5; stroke-linecap: square"/>
    <defs>
     <path id="mcace906a9c" d="M 0 2.892263 
C 0.767037 2.892263 1.502762 2.587516 2.045139 2.045139 
C 2.587516 1.502762 2.892263 0.767037 2.892263 0 
C 2.892263 -0.767037 2.587516 -1.502762 2.045139 -2.045139 
C 1.502762 -2.587516 0.767037 -2.892263 0 -2.892263 
C -0.767037 -2.892263 -1.502762 -2.587516 -2.045139 -2.045139 
C -2.587516 -1.502762 -2.892263 -0.767037 -2.892263 0 
C -2.892263 0.767037 -2.587516 1.502762 -2.045139 2.045139 
C -1.502762 2.587516 -0.767037 2.892263 0 2.892263 
z
" style="stroke: #ff00ff; stroke-opacity: 0.2"/>
    </defs>
    <g clip-path="url(#pdb254383d0)">
     <use xlink:href="#mcace906a9c" x="244.95" y="239.436152" style="fill: #ff00ff; fill-opacity: 0.2; stroke: #ff00ff; stroke-opacity: 0.2"/>
    </g>
   </g>
   <g id="line2d_26">
    <path d="M 151.95 144.622199 
" clip-path="url(#pdb254383d0)" style="fill: none; stroke: #ff00ff; stroke-opacity: 0.2; stroke-width: 1.5; stroke-linecap: square"/>
    <defs>
     <path id="m4dcb24d456" d="M 0 7.91757 
C 2.099764 7.91757 4.11381 7.083325 5.598568 5.598568 
C 7.083325 4.11381 7.91757 2.099764 7.91757 0 
C 7.91757 -2.099764 7.083325 -4.11381 5.598568 -5.598568 
C 4.11381 -7.083325 2.099764 -7.91757 0 -7.91757 
C -2.099764 -7.91757 -4.11381 -7.083325 -5.598568 -5.598568 
C -7.083325 -4.11381 -7.91757 -2.099764 -7.91757 0 
C -7.91757 2.099764 -7.083325 4.11381 -5.598568 5.598568 
C -4.11381 7.083325 -2.099764 7.91757 0 7.91757 
z
" style="stroke: #ff00ff; stroke-opacity: 0.2"/>
    </defs>
    <g clip-path="url(#pdb254383d0)">
     <use xlink:href="#m4dcb24d456" x="151.95" y="144.622199" style="fill: #ff00ff; fill-opacity: 0.2; stroke: #ff00ff; stroke-opacity: 0.2"/>
    </g>
   </g>
   <g id="line2d_27">
    <path d="M 151.95 239.436152 
" clip-path="url(#pdb254383d0)" style="fill: none; stroke: #ff00ff; stroke-opacity: 0.2; stroke-width: 1.5; stroke-linecap: square"/>
    <defs>
     <path id="m753dbc0974" d="M 0 1.735358 
C 0.460222 1.735358 0.901657 1.55251 1.227083 1.227083 
C 1.55251 0.901657 1.735358 0.460222 1.735358 0 
C 1.735358 -0.460222 1.55251 -0.901657 1.227083 -1.227083 
C 0.901657 -1.55251 0.460222 -1.735358 0 -1.735358 
C -0.460222 -1.735358 -0.901657 -1.55251 -1.227083 -1.227083 
C -1.55251 -0.901657 -1.735358 -0.460222 -1.735358 0 
C -1.735358 0.460222 -1.55251 0.901657 -1.227083 1.227083 
C -0.901657 1.55251 -0.460222 1.735358 0 1.735358 
z
" style="stroke: #ff00ff; stroke-opacity: 0.2"/>
    </defs>
    <g clip-path="url(#pdb254383d0)">
     <use xlink:href="#m753dbc0974" x="151.95" y="239.436152" style="fill: #ff00ff; fill-opacity: 0.2; stroke: #ff00ff; stroke-opacity: 0.2"/>
    </g>
   </g>
   <g id="line2d_28">
    <path d="M 124.05 113.017548 
" clip-path="url(#pdb254383d0)" style="fill: none; stroke: #0000ff; stroke-opacity: 0.2; stroke-width: 1.5; stroke-linecap: square"/>
    <defs>
     <path id="mf7c332c5ef" d="M 0 3.000723 
C 0.795801 3.000723 1.559115 2.684548 2.121832 2.121832 
C 2.684548 1.559115 3.000723 0.795801 3.000723 0 
C 3.000723 -0.795801 2.684548 -1.559115 2.121832 -2.121832 
C 1.559115 -2.684548 0.795801 -3.000723 0 -3.000723 
C -0.795801 -3.000723 -1.559115 -2.684548 -2.121832 -2.121832 
C -2.684548 -1.559115 -3.000723 -0.795801 -3.000723 0 
C -3.000723 0.795801 -2.684548 1.559115 -2.121832 2.121832 
C -1.559115 2.684548 -0.795801 3.000723 0 3.000723 
z
" style="stroke: #0000ff; stroke-opacity: 0.2"/>
    </defs>
    <g clip-path="url(#pdb254383d0)">
     <use xlink:href="#mf7c332c5ef" x="124.05" y="113.017548" style="fill: #0000ff; fill-opacity: 0.2; stroke: #0000ff; stroke-opacity: 0.2"/>
    </g>
   </g>
   <g id="line2d_29">
    <path d="M 124.05 170.48055 
" clip-path="url(#pdb254383d0)" style="fill: none; stroke: #0000ff; stroke-opacity: 0.2; stroke-width: 1.5; stroke-linecap: square"/>
    <defs>
     <path id="mf0f09488f2" d="M 0 4.844541 
C 1.284787 4.844541 2.517126 4.334089 3.425608 3.425608 
C 4.334089 2.517126 4.844541 1.284787 4.844541 0 
C 4.844541 -1.284787 4.334089 -2.517126 3.425608 -3.425608 
C 2.517126 -4.334089 1.284787 -4.844541 0 -4.844541 
C -1.284787 -4.844541 -2.517126 -4.334089 -3.425608 -3.425608 
C -4.334089 -2.517126 -4.844541 -1.284787 -4.844541 0 
C -4.844541 1.284787 -4.334089 2.517126 -3.425608 3.425608 
C -2.517126 4.334089 -1.284787 4.844541 0 4.844541 
z
" style="stroke: #0000ff; stroke-opacity: 0.2"/>
    </defs>
    <g clip-path="url(#pdb254383d0)">
     <use xlink:href="#mf0f09488f2" x="124.05" y="170.48055" style="fill: #0000ff; fill-opacity: 0.2; stroke: #0000ff; stroke-opacity: 0.2"/>
    </g>
   </g>
   <g id="line2d_30">
    <path d="M 244.95 190.5926 
" clip-path="url(#pdb254383d0)" style="fill: none; stroke: #ff00ff; stroke-opacity: 0.2; stroke-width: 1.5; stroke-linecap: square"/>
    <defs>
     <path id="m27a0dddfcb" d="M 0 1.626898 
C 0.431458 1.626898 0.845303 1.455478 1.150391 1.150391 
C 1.455478 0.845303 1.626898 0.431458 1.626898 0 
C 1.626898 -0.431458 1.455478 -0.845303 1.150391 -1.150391 
C 0.845303 -1.455478 0.431458 -1.626898 0 -1.626898 
C -0.431458 -1.626898 -0.845303 -1.455478 -1.150391 -1.150391 
C -1.455478 -0.845303 -1.626898 -0.431458 -1.626898 0 
C -1.626898 0.431458 -1.455478 0.845303 -1.150391 1.150391 
C -0.845303 1.455478 -0.431458 1.626898 0 1.626898 
z
" style="stroke: #ff00ff; stroke-opacity: 0.2"/>
    </defs>
    <g clip-path="url(#pdb254383d0)">
     <use xlink:href="#m27a0dddfcb" x="244.95" y="190.5926" style="fill: #ff00ff; fill-opacity: 0.2; stroke: #ff00ff; stroke-opacity: 0.2"/>
    </g>
   </g>
   <g id="line2d_31">
    <path d="M 244.95 181.97315 
" clip-path="url(#pdb254383d0)" style="fill: none; stroke: #ff00ff; stroke-opacity: 0.2; stroke-width: 1.5; stroke-linecap: square"/>
    <defs>
     <path id="me08f8f28b5" d="M 0 5.025307 
C 1.332727 5.025307 2.611049 4.495809 3.553429 3.553429 
C 4.495809 2.611049 5.025307 1.332727 5.025307 0 
C 5.025307 -1.332727 4.495809 -2.611049 3.553429 -3.553429 
C 2.611049 -4.495809 1.332727 -5.025307 0 -5.025307 
C -1.332727 -5.025307 -2.611049 -4.495809 -3.553429 -3.553429 
C -4.495809 -2.611049 -5.025307 -1.332727 -5.025307 0 
C -5.025307 1.332727 -4.495809 2.611049 -3.553429 3.553429 
C -2.611049 4.495809 -1.332727 5.025307 0 5.025307 
z
" style="stroke: #ff00ff; stroke-opacity: 0.2"/>
    </defs>
    <g clip-path="url(#pdb254383d0)">
     <use xlink:href="#me08f8f28b5" x="244.95" y="181.97315" style="fill: #ff00ff; fill-opacity: 0.2; stroke: #ff00ff; stroke-opacity: 0.2"/>
    </g>
   </g>
   <g id="line2d_32">
    <path d="M 151.95 296.899154 
" clip-path="url(#pdb254383d0)" style="fill: none; stroke: #ff00ff; stroke-opacity: 0.2; stroke-width: 1.5; stroke-linecap: square"/>
    <defs>
     <path id="mc9c934775f" d="M 0 1.590745 
C 0.42187 1.590745 0.826519 1.423134 1.124826 1.124826 
C 1.423134 0.826519 1.590745 0.42187 1.590745 0 
C 1.590745 -0.42187 1.423134 -0.826519 1.124826 -1.124826 
C 0.826519 -1.423134 0.42187 -1.590745 0 -1.590745 
C -0.42187 -1.590745 -0.826519 -1.423134 -1.124826 -1.124826 
C -1.423134 -0.826519 -1.590745 -0.42187 -1.590745 0 
C -1.590745 0.42187 -1.423134 0.826519 -1.124826 1.124826 
C -0.826519 1.423134 -0.42187 1.590745 0 1.590745 
z
" style="stroke: #ff00ff; stroke-opacity: 0.2"/>
    </defs>
    <g clip-path="url(#pdb254383d0)">
     <use xlink:href="#mc9c934775f" x="151.95" y="296.899154" style="fill: #ff00ff; fill-opacity: 0.2; stroke: #ff00ff; stroke-opacity: 0.2"/>
    </g>
   </g>
   <g id="line2d_33">
    <path d="M 138 276.787104 
" clip-path="url(#pdb254383d0)" style="fill: none; stroke: #000000; stroke-opacity: 0.2; stroke-width: 1.5; stroke-linecap: square"/>
    <defs>
     <path id="m82b42dd8ff" d="M 0 6.218366 
C 1.64913 6.218366 3.230938 5.56316 4.397049 4.397049 
C 5.56316 3.230938 6.218366 1.64913 6.218366 0 
C 6.218366 -1.64913 5.56316 -3.230938 4.397049 -4.397049 
C 3.230938 -5.56316 1.64913 -6.218366 0 -6.218366 
C -1.64913 -6.218366 -3.230938 -5.56316 -4.397049 -4.397049 
C -5.56316 -3.230938 -6.218366 -1.64913 -6.218366 0 
C -6.218366 1.64913 -5.56316 3.230938 -4.397049 4.397049 
C -3.230938 5.56316 -1.64913 6.218366 0 6.218366 
z
" style="stroke: #000000; stroke-opacity: 0.2"/>
    </defs>
    <g clip-path="url(#pdb254383d0)">
     <use xlink:href="#m82b42dd8ff" x="138" y="276.787104" style="fill-opacity: 0.2; stroke: #000000; stroke-opacity: 0.2"/>
    </g>
   </g>
   <g id="line2d_34">
    <path d="M 138 216.450951 
" clip-path="url(#pdb254383d0)" style="fill: none; stroke: #000000; stroke-opacity: 0.2; stroke-width: 1.5; stroke-linecap: square"/>
    <defs>
     <path id="me959b94e0f" d="M 0 1.518438 
C 0.402695 1.518438 0.78895 1.358446 1.073698 1.073698 
C 1.358446 0.78895 1.518438 0.402695 1.518438 0 
C 1.518438 -0.402695 1.358446 -0.78895 1.073698 -1.073698 
C 0.78895 -1.358446 0.402695 -1.518438 0 -1.518438 
C -0.402695 -1.518438 -0.78895 -1.358446 -1.073698 -1.073698 
C -1.358446 -0.78895 -1.518438 -0.402695 -1.518438 0 
C -1.518438 0.402695 -1.358446 0.78895 -1.073698 1.073698 
C -0.78895 1.358446 -0.402695 1.518438 0 1.518438 
z
" style="stroke: #000000; stroke-opacity: 0.2"/>
    </defs>
    <g clip-path="url(#pdb254383d0)">
     <use xlink:href="#me959b94e0f" x="138" y="216.450951" style="fill-opacity: 0.2; stroke: #000000; stroke-opacity: 0.2"/>
    </g>
   </g>
   <g id="line2d_35">
    <path d="M 124.05 210.704651 
" clip-path="url(#pdb254383d0)" style="fill: none; stroke: #0000ff; stroke-opacity: 0.2; stroke-width: 1.5; stroke-linecap: square"/>
    <defs>
     <path id="me1a62be0ff" d="M 0 13.882863 
C 3.681778 13.882863 7.213256 12.420077 9.816667 9.816667 
C 12.420077 7.213256 13.882863 3.681778 13.882863 0 
C 13.882863 -3.681778 12.420077 -7.213256 9.816667 -9.816667 
C 7.213256 -12.420077 3.681778 -13.882863 0 -13.882863 
C -3.681778 -13.882863 -7.213256 -12.420077 -9.816667 -9.816667 
C -12.420077 -7.213256 -13.882863 -3.681778 -13.882863 0 
C -13.882863 3.681778 -12.420077 7.213256 -9.816667 9.816667 
C -7.213256 12.420077 -3.681778 13.882863 0 13.882863 
z
" style="stroke: #0000ff; stroke-opacity: 0.2"/>
    </defs>
    <g clip-path="url(#pdb254383d0)">
     <use xlink:href="#me1a62be0ff" x="124.05" y="210.704651" style="fill: #0000ff; fill-opacity: 0.2; stroke: #0000ff; stroke-opacity: 0.2"/>
    </g>
   </g>
   <g id="line2d_36">
    <path d="M 151.95 288.279704 
" clip-path="url(#pdb254383d0)" style="fill: none; stroke: #ff00ff; stroke-opacity: 0.2; stroke-width: 1.5; stroke-linecap: square"/>
    <defs>
     <path id="m5877051a0f" d="M 0 0.867679 
C 0.230111 0.867679 0.450829 0.776255 0.613542 0.613542 
C 0.776255 0.450829 0.867679 0.230111 0.867679 0 
C 0.867679 -0.230111 0.776255 -0.450829 0.613542 -0.613542 
C 0.450829 -0.776255 0.230111 -0.867679 0 -0.867679 
C -0.230111 -0.867679 -0.450829 -0.776255 -0.613542 -0.613542 
C -0.776255 -0.450829 -0.867679 -0.230111 -0.867679 0 
C -0.867679 0.230111 -0.776255 0.450829 -0.613542 0.613542 
C -0.450829 0.776255 -0.230111 0.867679 0 0.867679 
z
" style="stroke: #ff00ff; stroke-opacity: 0.2"/>
    </defs>
    <g clip-path="url(#pdb254383d0)">
     <use xlink:href="#m5877051a0f" x="151.95" y="288.279704" style="fill: #ff00ff; fill-opacity: 0.2; stroke: #ff00ff; stroke-opacity: 0.2"/>
    </g>
   </g>
   <g id="line2d_37">
    <path d="M 151.95 250.928753 
" clip-path="url(#pdb254383d0)" style="fill: none; stroke: #ff00ff; stroke-opacity: 0.2; stroke-width: 1.5; stroke-linecap: square"/>
    <defs>
     <path id="m0fdf5907a9" d="M 0 3.109183 
C 0.824565 3.109183 1.615469 2.78158 2.198524 2.198524 
C 2.78158 1.615469 3.109183 0.824565 3.109183 0 
C 3.109183 -0.824565 2.78158 -1.615469 2.198524 -2.198524 
C 1.615469 -2.78158 0.824565 -3.109183 0 -3.109183 
C -0.824565 -3.109183 -1.615469 -2.78158 -2.198524 -2.198524 
C -2.78158 -1.615469 -3.109183 -0.824565 -3.109183 0 
C -3.109183 0.824565 -2.78158 1.615469 -2.198524 2.198524 
C -1.615469 2.78158 -0.824565 3.109183 0 3.109183 
z
" style="stroke: #ff00ff; stroke-opacity: 0.2"/>
    </defs>
    <g clip-path="url(#pdb254383d0)">
     <use xlink:href="#m0fdf5907a9" x="151.95" y="250.928753" style="fill: #ff00ff; fill-opacity: 0.2; stroke: #ff00ff; stroke-opacity: 0.2"/>
    </g>
   </g>
   <g id="line2d_38">
    <path d="M 124.05 230.816702 
" clip-path="url(#pdb254383d0)" style="fill: none; stroke: #0000ff; stroke-opacity: 0.2; stroke-width: 1.5; stroke-linecap: square"/>
    <defs>
     <path id="mc017f78dd1" d="M 0 1.409978 
C 0.373931 1.409978 0.732596 1.261414 0.997005 0.997005 
C 1.261414 0.732596 1.409978 0.373931 1.409978 0 
C 1.409978 -0.373931 1.261414 -0.732596 0.997005 -0.997005 
C 0.732596 -1.261414 0.373931 -1.409978 0 -1.409978 
C -0.373931 -1.409978 -0.732596 -1.261414 -0.997005 -0.997005 
C -1.261414 -0.732596 -1.409978 -0.373931 -1.409978 0 
C -1.409978 0.373931 -1.261414 0.732596 -0.997005 0.997005 
C -0.732596 1.261414 -0.373931 1.409978 0 1.409978 
z
" style="stroke: #0000ff; stroke-opacity: 0.2"/>
    </defs>
    <g clip-path="url(#pdb254383d0)">
     <use xlink:href="#mc017f78dd1" x="124.05" y="230.816702" style="fill: #0000ff; fill-opacity: 0.2; stroke: #0000ff; stroke-opacity: 0.2"/>
    </g>
   </g>
   <g id="line2d_39">
    <path d="M 244.95 55.554545 
" clip-path="url(#pdb254383d0)" style="fill: none; stroke: #ff00ff; stroke-opacity: 0.2; stroke-width: 1.5; stroke-linecap: square"/>
    <defs>
     <path id="m3e9f71cfcb" d="M 0 3.398409 
C 0.901269 3.398409 1.765745 3.040331 2.403038 2.403038 
C 3.040331 1.765745 3.398409 0.901269 3.398409 0 
C 3.398409 -0.901269 3.040331 -1.765745 2.403038 -2.403038 
C 1.765745 -3.040331 0.901269 -3.398409 0 -3.398409 
C -0.901269 -3.398409 -1.765745 -3.040331 -2.403038 -2.403038 
C -3.040331 -1.765745 -3.398409 -0.901269 -3.398409 0 
C -3.398409 0.901269 -3.040331 1.765745 -2.403038 2.403038 
C -1.765745 3.040331 -0.901269 3.398409 0 3.398409 
z
" style="stroke: #ff00ff; stroke-opacity: 0.2"/>
    </defs>
    <g clip-path="url(#pdb254383d0)">
     <use xlink:href="#m3e9f71cfcb" x="244.95" y="55.554545" style="fill: #ff00ff; fill-opacity: 0.2; stroke: #ff00ff; stroke-opacity: 0.2"/>
    </g>
   </g>
   <g id="line2d_40">
    <path d="M 138 213.725257 
" clip-path="url(#pdb254383d0)" style="fill: none; stroke: #ffffff; stroke-width: 1.5; stroke-linecap: square"/>
    <defs>
     <path id="m5587291c9a" d="M 0 7.5 
C 1.989023 7.5 3.896849 6.709753 5.303301 5.303301 
C 6.709753 3.896849 7.5 1.989023 7.5 0 
C 7.5 -1.989023 6.709753 -3.896849 5.303301 -5.303301 
C 3.896849 -6.709753 1.989023 -7.5 0 -7.5 
C -1.989023 -7.5 -3.896849 -6.709753 -5.303301 -5.303301 
C -6.709753 -3.896849 -7.5 -1.989023 -7.5 0 
C -7.5 1.989023 -6.709753 3.896849 -5.303301 5.303301 
C -3.896849 6.709753 -1.989023 7.5 0 7.5 
z
" style="stroke: #0000ff"/>
    </defs>
    <g clip-path="url(#pdb254383d0)">
     <use xlink:href="#m5587291c9a" x="138" y="213.725257" style="fill: #ffffff; stroke: #0000ff"/>
    </g>
   </g>
   <g id="line2d_41">
    <path d="M 231 188.99843 
" clip-path="url(#pdb254383d0)" style="fill: none; stroke: #ffffff; stroke-width: 1.5; stroke-linecap: square"/>
    <defs>
     <path id="m0ff06dc182" d="M 0 7.5 
C 1.989023 7.5 3.896849 6.709753 5.303301 5.303301 
C 6.709753 3.896849 7.5 1.989023 7.5 0 
C 7.5 -1.989023 6.709753 -3.896849 5.303301 -5.303301 
C 3.896849 -6.709753 1.989023 -7.5 0 -7.5 
C -1.989023 -7.5 -3.896849 -6.709753 -5.303301 -5.303301 
C -6.709753 -3.896849 -7.5 -1.989023 -7.5 0 
C -7.5 1.989023 -6.709753 3.896849 -5.303301 5.303301 
C -3.896849 6.709753 -1.989023 7.5 0 7.5 
z
" style="stroke: #ff0000"/>
    </defs>
    <g clip-path="url(#pdb254383d0)">
     <use xlink:href="#m0ff06dc182" x="231" y="188.99843" style="fill: #ffffff; stroke: #ff0000"/>
    </g>
   </g>
   <g id="line2d_42">
    <path d="M 184.5 204.326798 
" clip-path="url(#pdb254383d0)" style="fill: none; stroke: #ffffff; stroke-width: 1.5; stroke-linecap: square"/>
    <defs>
     <path id="m11a0327abb" d="M 0 7.5 
C 1.989023 7.5 3.896849 6.709753 5.303301 5.303301 
C 6.709753 3.896849 7.5 1.989023 7.5 0 
C 7.5 -1.989023 6.709753 -3.896849 5.303301 -5.303301 
C 3.896849 -6.709753 1.989023 -7.5 0 -7.5 
C -1.989023 -7.5 -3.896849 -6.709753 -5.303301 -5.303301 
C -6.709753 -3.896849 -7.5 -1.989023 -7.5 0 
C -7.5 1.989023 -6.709753 3.896849 -5.303301 5.303301 
C -3.896849 6.709753 -1.989023 7.5 0 7.5 
z
" style="stroke: #800080"/>
    </defs>
    <g clip-path="url(#pdb254383d0)">
     <use xlink:href="#m11a0327abb" x="184.5" y="204.326798" style="fill: #ffffff; stroke: #800080"/>
    </g>
   </g>
   <g id="line2d_43">
    <path d="M 138 214.606556 
L 138 212.843958 
" clip-path="url(#pdb254383d0)" style="fill: none; stroke: #0000ff; stroke-width: 3; stroke-linecap: square"/>
   </g>
   <g id="line2d_44">
    <path d="M 231 190.448121 
L 231 187.548739 
" clip-path="url(#pdb254383d0)" style="fill: none; stroke: #ff0000; stroke-width: 3; stroke-linecap: square"/>
   </g>
   <g id="line2d_45">
    <path d="M 184.5 205.124705 
L 184.5 203.528891 
" clip-path="url(#pdb254383d0)" style="fill: none; stroke: #800080; stroke-width: 3; stroke-linecap: square"/>
   </g>
   <g id="line2d_46">
    <path d="M 58.95 58.427696 
" clip-path="url(#pdb254383d0)" style="fill: none; stroke: #0000ff; stroke-opacity: 0.2; stroke-width: 1.5; stroke-linecap: square"/>
    <defs>
     <path id="m2f960be402" d="M 0 5 
C 1.326016 5 2.597899 4.473168 3.535534 3.535534 
C 4.473168 2.597899 5 1.326016 5 0 
C 5 -1.326016 4.473168 -2.597899 3.535534 -3.535534 
C 2.597899 -4.473168 1.326016 -5 0 -5 
C -1.326016 -5 -2.597899 -4.473168 -3.535534 -3.535534 
C -4.473168 -2.597899 -5 -1.326016 -5 0 
C -5 1.326016 -4.473168 2.597899 -3.535534 3.535534 
C -2.597899 4.473168 -1.326016 5 0 5 
z
" style="stroke: #0000ff; stroke-opacity: 0.2"/>
    </defs>
    <g clip-path="url(#pdb254383d0)">
     <use xlink:href="#m2f960be402" x="58.95" y="58.427696" style="fill: #0000ff; fill-opacity: 0.2; stroke: #0000ff; stroke-opacity: 0.2"/>
    </g>
   </g>
   <g id="line2d_47">
    <path d="M 58.95 72.793446 
" clip-path="url(#pdb254383d0)" style="fill: none; stroke: #000000; stroke-opacity: 0.2; stroke-width: 1.5; stroke-linecap: square"/>
    <defs>
     <path id="mfe6620eaf1" d="M 0 5 
C 1.326016 5 2.597899 4.473168 3.535534 3.535534 
C 4.473168 2.597899 5 1.326016 5 0 
C 5 -1.326016 4.473168 -2.597899 3.535534 -3.535534 
C 2.597899 -4.473168 1.326016 -5 0 -5 
C -1.326016 -5 -2.597899 -4.473168 -3.535534 -3.535534 
C -4.473168 -2.597899 -5 -1.326016 -5 0 
C -5 1.326016 -4.473168 2.597899 -3.535534 3.535534 
C -2.597899 4.473168 -1.326016 5 0 5 
z
" style="stroke: #000000; stroke-opacity: 0.2"/>
    </defs>
    <g clip-path="url(#pdb254383d0)">
     <use xlink:href="#mfe6620eaf1" x="58.95" y="72.793446" style="fill-opacity: 0.2; stroke: #000000; stroke-opacity: 0.2"/>
    </g>
   </g>
   <g id="line2d_48">
    <path d="M 58.95 87.159197 
" clip-path="url(#pdb254383d0)" style="fill: none; stroke: #ff00ff; stroke-opacity: 0.2; stroke-width: 1.5; stroke-linecap: square"/>
    <defs>
     <path id="m3860a81d9e" d="M 0 5 
C 1.326016 5 2.597899 4.473168 3.535534 3.535534 
C 4.473168 2.597899 5 1.326016 5 0 
C 5 -1.326016 4.473168 -2.597899 3.535534 -3.535534 
C 2.597899 -4.473168 1.326016 -5 0 -5 
C -1.326016 -5 -2.597899 -4.473168 -3.535534 -3.535534 
C -4.473168 -2.597899 -5 -1.326016 -5 0 
C -5 1.326016 -4.473168 2.597899 -3.535534 3.535534 
C -2.597899 4.473168 -1.326016 5 0 5 
z
" style="stroke: #ff00ff; stroke-opacity: 0.2"/>
    </defs>
    <g clip-path="url(#pdb254383d0)">
     <use xlink:href="#m3860a81d9e" x="58.95" y="87.159197" style="fill: #ff00ff; fill-opacity: 0.2; stroke: #ff00ff; stroke-opacity: 0.2"/>
    </g>
   </g>
   <g id="line2d_49">
    <path d="M 58.95 101.524947 
" clip-path="url(#pdb254383d0)" style="fill: none; stroke: #ffffff; stroke-width: 1.5; stroke-linecap: square"/>
    <defs>
     <path id="mbb3c8d0a81" d="M 0 5 
C 1.326016 5 2.597899 4.473168 3.535534 3.535534 
C 4.473168 2.597899 5 1.326016 5 0 
C 5 -1.326016 4.473168 -2.597899 3.535534 -3.535534 
C 2.597899 -4.473168 1.326016 -5 0 -5 
C -1.326016 -5 -2.597899 -4.473168 -3.535534 -3.535534 
C -4.473168 -2.597899 -5 -1.326016 -5 0 
C -5 1.326016 -4.473168 2.597899 -3.535534 3.535534 
C -2.597899 4.473168 -1.326016 5 0 5 
z
" style="stroke: #800080"/>
    </defs>
    <g clip-path="url(#pdb254383d0)">
     <use xlink:href="#mbb3c8d0a81" x="58.95" y="101.524947" style="fill: #ffffff; stroke: #800080"/>
    </g>
   </g>
   <g id="patch_3">
    <path d="M 45 315 
L 45 43.2 
" style="fill: none; stroke: #000000; stroke-width: 0.8; stroke-linejoin: miter; stroke-linecap: square"/>
   </g>
   <g id="patch_4">
    <path d="M 324 315 
L 324 43.2 
" style="fill: none; stroke: #000000; stroke-width: 0.8; stroke-linejoin: miter; stroke-linecap: square"/>
   </g>
   <g id="patch_5">
    <path d="M 45 315 
L 324 315 
" style="fill: none; stroke: #000000; stroke-width: 0.8; stroke-linejoin: miter; stroke-linecap: square"/>
   </g>
   <g id="patch_6">
    <path d="M 45 43.2 
L 324 43.2 
" style="fill: none; stroke: #000000; stroke-width: 0.8; stroke-linejoin: miter; stroke-linecap: square"/>
   </g>
   <g id="text_9">
    <text style="font: 12px 'sans-serif'; text-anchor: start" x="72.9" y="64.173996" transform="rotate(-0, 72.9, 64.173996)">Adult only</text>
   </g>
   <g id="text_10">
    <text style="font: 12px 'sans-serif'; text-anchor: start" x="72.9" y="78.539746" transform="rotate(-0, 72.9, 78.539746)">Mixed</text>
   </g>
   <g id="text_11">
    <text style="font: 12px 'sans-serif'; text-anchor: start" x="72.9" y="92.905497" transform="rotate(-0, 72.9, 92.905497)">Paediatric only</text>
   </g>
   <g id="text_12">
    <text style="font: 12px 'sans-serif'; text-anchor: start" x="72.9" y="107.271247" transform="rotate(-0, 72.9, 107.271247)">Weighted mean</text>
   </g>
   <g id="text_13">
    <text style="font: 12px 'sans-serif'; text-anchor: middle" x="184.5" y="37.2" transform="rotate(-0, 184.5, 37.2)">SuppFig1A</text>
   </g>
  </g>
 </g>
 <defs>
  <clipPath id="pdb254383d0">
   <rect x="45" y="43.2" width="279" height="271.8"/>
  </clipPath>
 </defs>
</svg>
