<?xml version="1.0" encoding="utf-8" standalone="no"?>
<!DOCTYPE svg PUBLIC "-//W3C//DTD SVG 1.1//EN"
  "http://www.w3.org/Graphics/SVG/1.1/DTD/svg11.dtd">
<svg xmlns:xlink="http://www.w3.org/1999/xlink" width="360pt" height="360pt" viewBox="0 0 360 360" xmlns="http://www.w3.org/2000/svg" version="1.1">
 <metadata>
  <rdf:RDF xmlns:dc="http://purl.org/dc/elements/1.1/" xmlns:cc="http://creativecommons.org/ns#" xmlns:rdf="http://www.w3.org/1999/02/22-rdf-syntax-ns#">
   <cc:Work>
    <dc:type rdf:resource="http://purl.org/dc/dcmitype/StillImage"/>
    <dc:date>2021-12-02T19:17:31.566817</dc:date>
    <dc:format>image/svg+xml</dc:format>
    <dc:creator>
     <cc:Agent>
      <dc:title>Matplotlib v3.5.0, https://matplotlib.org/</dc:title>
     </cc:Agent>
    </dc:creator>
   </cc:Work>
  </rdf:RDF>
 </metadata>
 <defs>
  <style type="text/css">*{stroke-linejoin: round; stroke-linecap: butt}</style>
 </defs>
 <g id="figure_1">
  <g id="patch_1">
   <path d="M 0 360 
L 360 360 
L 360 0 
L 0 0 
L 0 360 
z
" style="fill: none"/>
  </g>
  <g id="axes_1">
   <g id="patch_2">
    <path d="M 45 315 
L 324 315 
L 324 43.2 
L 45 43.2 
z
" style="fill: #ffffff"/>
   </g>
   <g id="matplotlib.axis_1">
    <g id="xtick_1">
     <g id="line2d_1">
      <defs>
       <path id="mb01519818e" d="M 0 0 
L 0 3.5 
" style="stroke: #000000; stroke-width: 0.8"/>
      </defs>
      <g>
       <use xlink:href="#mb01519818e" x="114.75" y="315" style="stroke: #000000; stroke-width: 0.8"/>
      </g>
     </g>
     <g id="text_1">
      <text style="font: 10px 'sans-serif'; text-anchor: middle" x="114.75" y="329.598437" transform="rotate(-0, 114.75, 329.598437)">10-30min</text>
     </g>
    </g>
    <g id="xtick_2">
     <g id="line2d_2">
      <g>
       <use xlink:href="#mb01519818e" x="184.5" y="315" style="stroke: #000000; stroke-width: 0.8"/>
      </g>
     </g>
     <g id="text_2">
      <text style="font: 10px 'sans-serif'; text-anchor: middle" x="184.5" y="329.598437" transform="rotate(-0, 184.5, 329.598437)">31-60min</text>
     </g>
    </g>
    <g id="xtick_3">
     <g id="line2d_3">
      <g>
       <use xlink:href="#mb01519818e" x="254.25" y="315" style="stroke: #000000; stroke-width: 0.8"/>
      </g>
     </g>
     <g id="text_3">
      <text style="font: 10px 'sans-serif'; text-anchor: middle" x="254.25" y="329.598437" transform="rotate(-0, 254.25, 329.598437)">&gt;60min</text>
     </g>
    </g>
   </g>
   <g id="matplotlib.axis_2">
    <g id="ytick_1">
     <g id="line2d_4">
      <defs>
       <path id="mb6bd7e050e" d="M 0 0 
L -3.5 0 
" style="stroke: #000000; stroke-width: 0.8"/>
      </defs>
      <g>
       <use xlink:href="#mb6bd7e050e" x="45" y="310.287441" style="stroke: #000000; stroke-width: 0.8"/>
      </g>
     </g>
     <g id="text_4">
      <text style="font: 10px 'sans-serif'; text-anchor: end" x="38" y="314.08666" transform="rotate(-0, 38, 314.08666)">0</text>
     </g>
    </g>
    <g id="ytick_2">
     <g id="line2d_5">
      <g>
       <use xlink:href="#mb6bd7e050e" x="45" y="259.340862" style="stroke: #000000; stroke-width: 0.8"/>
      </g>
     </g>
     <g id="text_5">
      <text style="font: 10px 'sans-serif'; text-anchor: end" x="38" y="263.140081" transform="rotate(-0, 38, 263.140081)">20</text>
     </g>
    </g>
    <g id="ytick_3">
     <g id="line2d_6">
      <g>
       <use xlink:href="#mb6bd7e050e" x="45" y="208.394283" style="stroke: #000000; stroke-width: 0.8"/>
      </g>
     </g>
     <g id="text_6">
      <text style="font: 10px 'sans-serif'; text-anchor: end" x="38" y="212.193502" transform="rotate(-0, 38, 212.193502)">40</text>
     </g>
    </g>
    <g id="ytick_4">
     <g id="line2d_7">
      <g>
       <use xlink:href="#mb6bd7e050e" x="45" y="157.447704" style="stroke: #000000; stroke-width: 0.8"/>
      </g>
     </g>
     <g id="text_7">
      <text style="font: 10px 'sans-serif'; text-anchor: end" x="38" y="161.246923" transform="rotate(-0, 38, 161.246923)">60</text>
     </g>
    </g>
    <g id="ytick_5">
     <g id="line2d_8">
      <g>
       <use xlink:href="#mb6bd7e050e" x="45" y="106.501125" style="stroke: #000000; stroke-width: 0.8"/>
      </g>
     </g>
     <g id="text_8">
      <text style="font: 10px 'sans-serif'; text-anchor: end" x="38" y="110.300343" transform="rotate(-0, 38, 110.300343)">80</text>
     </g>
    </g>
    <g id="ytick_6">
     <g id="line2d_9">
      <g>
       <use xlink:href="#mb6bd7e050e" x="45" y="55.554545" style="stroke: #000000; stroke-width: 0.8"/>
      </g>
     </g>
     <g id="text_9">
      <text style="font: 10px 'sans-serif'; text-anchor: end" x="38" y="59.353764" transform="rotate(-0, 38, 59.353764)">100</text>
     </g>
    </g>
    <g id="text_10">
     <text style="font: 10px 'sans-serif'; text-anchor: middle" x="12.832812" y="179.1" transform="rotate(-90, 12.832812, 179.1)">BZP-R (%)</text>
    </g>
   </g>
   <g id="line2d_10">
    <path d="M 264.7125 144.711059 
" clip-path="url(#pd43486740f)" style="fill: none; stroke: #ffffff; stroke-opacity: 0.2; stroke-width: 1.5; stroke-linecap: square"/>
    <defs>
     <path id="md030705553" d="M 0 1.86792 
C 0.495378 1.86792 0.970534 1.671104 1.320819 1.320819 
C 1.671104 0.970534 1.86792 0.495378 1.86792 0 
C 1.86792 -0.495378 1.671104 -0.970534 1.320819 -1.320819 
C 0.970534 -1.671104 0.495378 -1.86792 0 -1.86792 
C -0.495378 -1.86792 -0.970534 -1.671104 -1.320819 -1.320819 
C -1.671104 -0.970534 -1.86792 -0.495378 -1.86792 0 
C -1.86792 0.495378 -1.671104 0.970534 -1.320819 1.320819 
C -0.970534 1.671104 -0.495378 1.86792 0 1.86792 
z
" style="stroke: #ffa500; stroke-opacity: 0.2; stroke-width: 2"/>
    </defs>
    <g clip-path="url(#pd43486740f)">
     <use xlink:href="#md030705553" x="264.7125" y="144.711059" style="fill: #ffffff; fill-opacity: 0.2; stroke: #ffa500; stroke-opacity: 0.2; stroke-width: 2"/>
    </g>
   </g>
   <g id="line2d_11">
    <path d="M 264.7125 144.711059 
" clip-path="url(#pd43486740f)" style="fill: none; stroke: #ff0000; stroke-opacity: 0.2; stroke-width: 1.5; stroke-linecap: square"/>
    <defs>
     <path id="mad32d19f85" d="M 0 1.86792 
C 0.495378 1.86792 0.970534 1.671104 1.320819 1.320819 
C 1.671104 0.970534 1.86792 0.495378 1.86792 0 
C 1.86792 -0.495378 1.671104 -0.970534 1.320819 -1.320819 
C 0.970534 -1.671104 0.495378 -1.86792 0 -1.86792 
C -0.495378 -1.86792 -0.970534 -1.671104 -1.320819 -1.320819 
C -1.671104 -0.970534 -1.86792 -0.495378 -1.86792 0 
C -1.86792 0.495378 -1.671104 0.970534 -1.320819 1.320819 
C -0.970534 1.671104 -0.495378 1.86792 0 1.86792 
z
" style="stroke: #ffa500; stroke-opacity: 0.2; stroke-width: 2"/>
    </defs>
    <g clip-path="url(#pd43486740f)">
     <use xlink:href="#mad32d19f85" x="264.7125" y="144.711059" style="fill: #ff0000; fill-opacity: 0.2; stroke: #ffa500; stroke-opacity: 0.2; stroke-width: 2"/>
    </g>
   </g>
   <g id="line2d_12">
    <path d="M 194.9625 188.015651 
" clip-path="url(#pd43486740f)" style="fill: none; stroke: #ffffff; stroke-opacity: 0.2; stroke-width: 1.5; stroke-linecap: square"/>
    <defs>
     <path id="m9319cad8a9" d="M 0 8.67679 
C 2.301111 8.67679 4.508285 7.762548 6.135417 6.135417 
C 7.762548 4.508285 8.67679 2.301111 8.67679 0 
C 8.67679 -2.301111 7.762548 -4.508285 6.135417 -6.135417 
C 4.508285 -7.762548 2.301111 -8.67679 0 -8.67679 
C -2.301111 -8.67679 -4.508285 -7.762548 -6.135417 -6.135417 
C -7.762548 -4.508285 -8.67679 -2.301111 -8.67679 0 
C -8.67679 2.301111 -7.762548 4.508285 -6.135417 6.135417 
C -4.508285 7.762548 -2.301111 8.67679 0 8.67679 
z
" style="stroke: #ff00ff; stroke-opacity: 0.2; stroke-width: 2"/>
    </defs>
    <g clip-path="url(#pd43486740f)">
     <use xlink:href="#m9319cad8a9" x="194.9625" y="188.015651" style="fill: #ffffff; fill-opacity: 0.2; stroke: #ff00ff; stroke-opacity: 0.2; stroke-width: 2"/>
    </g>
   </g>
   <g id="line2d_13">
    <path d="M 194.9625 188.015651 
" clip-path="url(#pd43486740f)" style="fill: none; stroke: #ff0000; stroke-opacity: 0.2; stroke-width: 1.5; stroke-linecap: square"/>
    <defs>
     <path id="m5abfae3820" d="M 0 8.67679 
C 2.301111 8.67679 4.508285 7.762548 6.135417 6.135417 
C 7.762548 4.508285 8.67679 2.301111 8.67679 0 
C 8.67679 -2.301111 7.762548 -4.508285 6.135417 -6.135417 
C 4.508285 -7.762548 2.301111 -8.67679 0 -8.67679 
C -2.301111 -8.67679 -4.508285 -7.762548 -6.135417 -6.135417 
C -7.762548 -4.508285 -8.67679 -2.301111 -8.67679 0 
C -8.67679 2.301111 -7.762548 4.508285 -6.135417 6.135417 
C -4.508285 7.762548 -2.301111 8.67679 0 8.67679 
z
" style="stroke: #ff00ff; stroke-opacity: 0.2; stroke-width: 2"/>
    </defs>
    <g clip-path="url(#pd43486740f)">
     <use xlink:href="#m5abfae3820" x="194.9625" y="188.015651" style="fill: #ff0000; fill-opacity: 0.2; stroke: #ff00ff; stroke-opacity: 0.2; stroke-width: 2"/>
    </g>
   </g>
   <g id="line2d_14">
    <path d="M 104.2875 238.962231 
" clip-path="url(#pd43486740f)" style="fill: none; stroke: #ffffff; stroke-opacity: 0.2; stroke-width: 1.5; stroke-linecap: square"/>
    <defs>
     <path id="m19b084f85c" d="M 0 7.592191 
C 2.013473 7.592191 3.94475 6.79223 5.36849 5.36849 
C 6.79223 3.94475 7.592191 2.013473 7.592191 0 
C 7.592191 -2.013473 6.79223 -3.94475 5.36849 -5.36849 
C 3.94475 -6.79223 2.013473 -7.592191 0 -7.592191 
C -2.013473 -7.592191 -3.94475 -6.79223 -5.36849 -5.36849 
C -6.79223 -3.94475 -7.592191 -2.013473 -7.592191 0 
C -7.592191 2.013473 -6.79223 3.94475 -5.36849 5.36849 
C -3.94475 6.79223 -2.013473 7.592191 0 7.592191 
z
" style="stroke: #ffa500; stroke-opacity: 0.2; stroke-width: 2"/>
    </defs>
    <g clip-path="url(#pd43486740f)">
     <use xlink:href="#m19b084f85c" x="104.2875" y="238.962231" style="fill: #ffffff; fill-opacity: 0.2; stroke: #ffa500; stroke-opacity: 0.2; stroke-width: 2"/>
    </g>
   </g>
   <g id="line2d_15">
    <path d="M 104.2875 238.962231 
" clip-path="url(#pd43486740f)" style="fill: none; stroke: #0000ff; stroke-opacity: 0.2; stroke-width: 1.5; stroke-linecap: square"/>
    <defs>
     <path id="mef431ad4f0" d="M 0 7.592191 
C 2.013473 7.592191 3.94475 6.79223 5.36849 5.36849 
C 6.79223 3.94475 7.592191 2.013473 7.592191 0 
C 7.592191 -2.013473 6.79223 -3.94475 5.36849 -5.36849 
C 3.94475 -6.79223 2.013473 -7.592191 0 -7.592191 
C -2.013473 -7.592191 -3.94475 -6.79223 -5.36849 -5.36849 
C -6.79223 -3.94475 -7.592191 -2.013473 -7.592191 0 
C -7.592191 2.013473 -6.79223 3.94475 -5.36849 5.36849 
C -3.94475 6.79223 -2.013473 7.592191 0 7.592191 
z
" style="stroke: #ffa500; stroke-opacity: 0.2; stroke-width: 2"/>
    </defs>
    <g clip-path="url(#pd43486740f)">
     <use xlink:href="#mef431ad4f0" x="104.2875" y="238.962231" style="fill: #0000ff; fill-opacity: 0.2; stroke: #ffa500; stroke-opacity: 0.2; stroke-width: 2"/>
    </g>
   </g>
   <g id="line2d_16">
    <path d="M 104.2875 302.645455 
" clip-path="url(#pd43486740f)" style="fill: none; stroke: #ffffff; stroke-opacity: 0.2; stroke-width: 1.5; stroke-linecap: square"/>
    <defs>
     <path id="mc80fc976c9" d="M 0 2.349964 
C 0.623218 2.349964 1.220994 2.102357 1.661675 1.661675 
C 2.102357 1.220994 2.349964 0.623218 2.349964 0 
C 2.349964 -0.623218 2.102357 -1.220994 1.661675 -1.661675 
C 1.220994 -2.102357 0.623218 -2.349964 0 -2.349964 
C -0.623218 -2.349964 -1.220994 -2.102357 -1.661675 -1.661675 
C -2.102357 -1.220994 -2.349964 -0.623218 -2.349964 0 
C -2.349964 0.623218 -2.102357 1.220994 -1.661675 1.661675 
C -1.220994 2.102357 -0.623218 2.349964 0 2.349964 
z
" style="stroke: #ff00ff; stroke-opacity: 0.2; stroke-width: 2"/>
    </defs>
    <g clip-path="url(#pd43486740f)">
     <use xlink:href="#mc80fc976c9" x="104.2875" y="302.645455" style="fill: #ffffff; fill-opacity: 0.2; stroke: #ff00ff; stroke-opacity: 0.2; stroke-width: 2"/>
    </g>
   </g>
   <g id="line2d_17">
    <path d="M 104.2875 302.645455 
" clip-path="url(#pd43486740f)" style="fill: none; stroke: #0000ff; stroke-opacity: 0.2; stroke-width: 1.5; stroke-linecap: square"/>
    <defs>
     <path id="m600fc42483" d="M 0 2.349964 
C 0.623218 2.349964 1.220994 2.102357 1.661675 1.661675 
C 2.102357 1.220994 2.349964 0.623218 2.349964 0 
C 2.349964 -0.623218 2.102357 -1.220994 1.661675 -1.661675 
C 1.220994 -2.102357 0.623218 -2.349964 0 -2.349964 
C -0.623218 -2.349964 -1.220994 -2.102357 -1.661675 -1.661675 
C -2.102357 -1.220994 -2.349964 -0.623218 -2.349964 0 
C -2.349964 0.623218 -2.102357 1.220994 -1.661675 1.661675 
C -1.220994 2.102357 -0.623218 2.349964 0 2.349964 
z
" style="stroke: #ff00ff; stroke-opacity: 0.2; stroke-width: 2"/>
    </defs>
    <g clip-path="url(#pd43486740f)">
     <use xlink:href="#m600fc42483" x="104.2875" y="302.645455" style="fill: #0000ff; fill-opacity: 0.2; stroke: #ff00ff; stroke-opacity: 0.2; stroke-width: 2"/>
    </g>
   </g>
   <g id="line2d_18">
    <path d="M 174.0375 200.752296 
" clip-path="url(#pd43486740f)" style="fill: none; stroke: #ffffff; stroke-opacity: 0.2; stroke-width: 1.5; stroke-linecap: square"/>
    <defs>
     <path id="m8a9f9c7f6c" d="M 0 2.53073 
C 0.671158 2.53073 1.314917 2.264077 1.789497 1.789497 
C 2.264077 1.314917 2.53073 0.671158 2.53073 0 
C 2.53073 -0.671158 2.264077 -1.314917 1.789497 -1.789497 
C 1.314917 -2.264077 0.671158 -2.53073 0 -2.53073 
C -0.671158 -2.53073 -1.314917 -2.264077 -1.789497 -1.789497 
C -2.264077 -1.314917 -2.53073 -0.671158 -2.53073 0 
C -2.53073 0.671158 -2.264077 1.314917 -1.789497 1.789497 
C -1.314917 2.264077 -0.671158 2.53073 0 2.53073 
z
" style="stroke: #ffa500; stroke-opacity: 0.2; stroke-width: 2"/>
    </defs>
    <g clip-path="url(#pd43486740f)">
     <use xlink:href="#m8a9f9c7f6c" x="174.0375" y="200.752296" style="fill: #ffffff; fill-opacity: 0.2; stroke: #ffa500; stroke-opacity: 0.2; stroke-width: 2"/>
    </g>
   </g>
   <g id="line2d_19">
    <path d="M 174.0375 200.752296 
" clip-path="url(#pd43486740f)" style="fill: none; stroke: #0000ff; stroke-opacity: 0.2; stroke-width: 1.5; stroke-linecap: square"/>
    <defs>
     <path id="m931248e982" d="M 0 2.53073 
C 0.671158 2.53073 1.314917 2.264077 1.789497 1.789497 
C 2.264077 1.314917 2.53073 0.671158 2.53073 0 
C 2.53073 -0.671158 2.264077 -1.314917 1.789497 -1.789497 
C 1.314917 -2.264077 0.671158 -2.53073 0 -2.53073 
C -0.671158 -2.53073 -1.314917 -2.264077 -1.789497 -1.789497 
C -2.264077 -1.314917 -2.53073 -0.671158 -2.53073 0 
C -2.53073 0.671158 -2.264077 1.314917 -1.789497 1.789497 
C -1.314917 2.264077 -0.671158 2.53073 0 2.53073 
z
" style="stroke: #ffa500; stroke-opacity: 0.2; stroke-width: 2"/>
    </defs>
    <g clip-path="url(#pd43486740f)">
     <use xlink:href="#m931248e982" x="174.0375" y="200.752296" style="fill: #0000ff; fill-opacity: 0.2; stroke: #ffa500; stroke-opacity: 0.2; stroke-width: 2"/>
    </g>
   </g>
   <g id="line2d_20">
    <path d="M 264.7125 111.595783 
" clip-path="url(#pd43486740f)" style="fill: none; stroke: #ffffff; stroke-opacity: 0.2; stroke-width: 1.5; stroke-linecap: square"/>
    <defs>
     <path id="m8805c4e946" d="M 0 5.061461 
C 1.342315 5.061461 2.629833 4.528153 3.578993 3.578993 
C 4.528153 2.629833 5.061461 1.342315 5.061461 0 
C 5.061461 -1.342315 4.528153 -2.629833 3.578993 -3.578993 
C 2.629833 -4.528153 1.342315 -5.061461 0 -5.061461 
C -1.342315 -5.061461 -2.629833 -4.528153 -3.578993 -3.578993 
C -4.528153 -2.629833 -5.061461 -1.342315 -5.061461 0 
C -5.061461 1.342315 -4.528153 2.629833 -3.578993 3.578993 
C -2.629833 4.528153 -1.342315 5.061461 0 5.061461 
z
" style="stroke: #000000; stroke-opacity: 0.2; stroke-width: 2"/>
    </defs>
    <g clip-path="url(#pd43486740f)">
     <use xlink:href="#m8805c4e946" x="264.7125" y="111.595783" style="fill: #ffffff; fill-opacity: 0.2; stroke: #000000; stroke-opacity: 0.2; stroke-width: 2"/>
    </g>
   </g>
   <g id="line2d_21">
    <path d="M 264.7125 111.595783 
" clip-path="url(#pd43486740f)" style="fill: none; stroke: #ff0000; stroke-opacity: 0.2; stroke-width: 1.5; stroke-linecap: square"/>
    <defs>
     <path id="me87e768ebe" d="M 0 5.061461 
C 1.342315 5.061461 2.629833 4.528153 3.578993 3.578993 
C 4.528153 2.629833 5.061461 1.342315 5.061461 0 
C 5.061461 -1.342315 4.528153 -2.629833 3.578993 -3.578993 
C 2.629833 -4.528153 1.342315 -5.061461 0 -5.061461 
C -1.342315 -5.061461 -2.629833 -4.528153 -3.578993 -3.578993 
C -4.528153 -2.629833 -5.061461 -1.342315 -5.061461 0 
C -5.061461 1.342315 -4.528153 2.629833 -3.578993 3.578993 
C -2.629833 4.528153 -1.342315 5.061461 0 5.061461 
z
" style="stroke: #000000; stroke-opacity: 0.2; stroke-width: 2"/>
    </defs>
    <g clip-path="url(#pd43486740f)">
     <use xlink:href="#me87e768ebe" x="264.7125" y="111.595783" style="fill: #ff0000; fill-opacity: 0.2; stroke: #000000; stroke-opacity: 0.2; stroke-width: 2"/>
    </g>
   </g>
   <g id="line2d_22">
    <path d="M 243.7875 269.530178 
" clip-path="url(#pd43486740f)" style="fill: none; stroke: #ffffff; stroke-opacity: 0.2; stroke-width: 1.5; stroke-linecap: square"/>
    <defs>
     <path id="m7c02ae1814" d="M 0 4.097373 
C 1.086636 4.097373 2.128912 3.665648 2.89728 2.89728 
C 3.665648 2.128912 4.097373 1.086636 4.097373 0 
C 4.097373 -1.086636 3.665648 -2.128912 2.89728 -2.89728 
C 2.128912 -3.665648 1.086636 -4.097373 0 -4.097373 
C -1.086636 -4.097373 -2.128912 -3.665648 -2.89728 -2.89728 
C -3.665648 -2.128912 -4.097373 -1.086636 -4.097373 0 
C -4.097373 1.086636 -3.665648 2.128912 -2.89728 2.89728 
C -2.128912 3.665648 -1.086636 4.097373 0 4.097373 
z
" style="stroke: #ffa500; stroke-opacity: 0.2; stroke-width: 2"/>
    </defs>
    <g clip-path="url(#pd43486740f)">
     <use xlink:href="#m7c02ae1814" x="243.7875" y="269.530178" style="fill: #ffffff; fill-opacity: 0.2; stroke: #ffa500; stroke-opacity: 0.2; stroke-width: 2"/>
    </g>
   </g>
   <g id="line2d_23">
    <path d="M 243.7875 269.530178 
" clip-path="url(#pd43486740f)" style="fill: none; stroke: #0000ff; stroke-opacity: 0.2; stroke-width: 1.5; stroke-linecap: square"/>
    <defs>
     <path id="m111c062247" d="M 0 4.097373 
C 1.086636 4.097373 2.128912 3.665648 2.89728 2.89728 
C 3.665648 2.128912 4.097373 1.086636 4.097373 0 
C 4.097373 -1.086636 3.665648 -2.128912 2.89728 -2.89728 
C 2.128912 -3.665648 1.086636 -4.097373 0 -4.097373 
C -1.086636 -4.097373 -2.128912 -3.665648 -2.89728 -2.89728 
C -3.665648 -2.128912 -4.097373 -1.086636 -4.097373 0 
C -4.097373 1.086636 -3.665648 2.128912 -2.89728 2.89728 
C -2.128912 3.665648 -1.086636 4.097373 0 4.097373 
z
" style="stroke: #ffa500; stroke-opacity: 0.2; stroke-width: 2"/>
    </defs>
    <g clip-path="url(#pd43486740f)">
     <use xlink:href="#m111c062247" x="243.7875" y="269.530178" style="fill: #0000ff; fill-opacity: 0.2; stroke: #ffa500; stroke-opacity: 0.2; stroke-width: 2"/>
    </g>
   </g>
   <g id="line2d_24">
    <path d="M 194.9625 172.731678 
" clip-path="url(#pd43486740f)" style="fill: none; stroke: #ffffff; stroke-opacity: 0.2; stroke-width: 1.5; stroke-linecap: square"/>
    <defs>
     <path id="mb7179f6d91" d="M 0 3.012774 
C 0.798997 3.012774 1.565377 2.695329 2.130353 2.130353 
C 2.695329 1.565377 3.012774 0.798997 3.012774 0 
C 3.012774 -0.798997 2.695329 -1.565377 2.130353 -2.130353 
C 1.565377 -2.695329 0.798997 -3.012774 0 -3.012774 
C -0.798997 -3.012774 -1.565377 -2.695329 -2.130353 -2.130353 
C -2.695329 -1.565377 -3.012774 -0.798997 -3.012774 0 
C -3.012774 0.798997 -2.695329 1.565377 -2.130353 2.130353 
C -1.565377 2.695329 -0.798997 3.012774 0 3.012774 
z
" style="stroke: #ff00ff; stroke-opacity: 0.2; stroke-width: 2"/>
    </defs>
    <g clip-path="url(#pd43486740f)">
     <use xlink:href="#mb7179f6d91" x="194.9625" y="172.731678" style="fill: #ffffff; fill-opacity: 0.2; stroke: #ff00ff; stroke-opacity: 0.2; stroke-width: 2"/>
    </g>
   </g>
   <g id="line2d_25">
    <path d="M 194.9625 172.731678 
" clip-path="url(#pd43486740f)" style="fill: none; stroke: #ff0000; stroke-opacity: 0.2; stroke-width: 1.5; stroke-linecap: square"/>
    <defs>
     <path id="m8b21684318" d="M 0 3.012774 
C 0.798997 3.012774 1.565377 2.695329 2.130353 2.130353 
C 2.695329 1.565377 3.012774 0.798997 3.012774 0 
C 3.012774 -0.798997 2.695329 -1.565377 2.130353 -2.130353 
C 1.565377 -2.695329 0.798997 -3.012774 0 -3.012774 
C -0.798997 -3.012774 -1.565377 -2.695329 -2.130353 -2.130353 
C -2.695329 -1.565377 -3.012774 -0.798997 -3.012774 0 
C -3.012774 0.798997 -2.695329 1.565377 -2.130353 2.130353 
C -1.565377 2.695329 -0.798997 3.012774 0 3.012774 
z
" style="stroke: #ff00ff; stroke-opacity: 0.2; stroke-width: 2"/>
    </defs>
    <g clip-path="url(#pd43486740f)">
     <use xlink:href="#m8b21684318" x="194.9625" y="172.731678" style="fill: #ff0000; fill-opacity: 0.2; stroke: #ff00ff; stroke-opacity: 0.2; stroke-width: 2"/>
    </g>
   </g>
   <g id="line2d_26">
    <path d="M 125.2125 249.151546 
" clip-path="url(#pd43486740f)" style="fill: none; stroke: #ffffff; stroke-opacity: 0.2; stroke-width: 1.5; stroke-linecap: square"/>
    <defs>
     <path id="ma35184cb5b" d="M 0 4.760183 
C 1.262415 4.760183 2.473295 4.25862 3.365958 3.365958 
C 4.25862 2.473295 4.760183 1.262415 4.760183 0 
C 4.760183 -1.262415 4.25862 -2.473295 3.365958 -3.365958 
C 2.473295 -4.25862 1.262415 -4.760183 0 -4.760183 
C -1.262415 -4.760183 -2.473295 -4.25862 -3.365958 -3.365958 
C -4.25862 -2.473295 -4.760183 -1.262415 -4.760183 0 
C -4.760183 1.262415 -4.25862 2.473295 -3.365958 3.365958 
C -2.473295 4.25862 -1.262415 4.760183 0 4.760183 
z
" style="stroke: #ffa500; stroke-opacity: 0.2; stroke-width: 2"/>
    </defs>
    <g clip-path="url(#pd43486740f)">
     <use xlink:href="#ma35184cb5b" x="125.2125" y="249.151546" style="fill: #ffffff; fill-opacity: 0.2; stroke: #ffa500; stroke-opacity: 0.2; stroke-width: 2"/>
    </g>
   </g>
   <g id="line2d_27">
    <path d="M 125.2125 249.151546 
" clip-path="url(#pd43486740f)" style="fill: none; stroke: #ff0000; stroke-opacity: 0.2; stroke-width: 1.5; stroke-linecap: square"/>
    <defs>
     <path id="mcd95dbbb00" d="M 0 4.760183 
C 1.262415 4.760183 2.473295 4.25862 3.365958 3.365958 
C 4.25862 2.473295 4.760183 1.262415 4.760183 0 
C 4.760183 -1.262415 4.25862 -2.473295 3.365958 -3.365958 
C 2.473295 -4.25862 1.262415 -4.760183 0 -4.760183 
C -1.262415 -4.760183 -2.473295 -4.25862 -3.365958 -3.365958 
C -4.25862 -2.473295 -4.760183 -1.262415 -4.760183 0 
C -4.760183 1.262415 -4.25862 2.473295 -3.365958 3.365958 
C -2.473295 4.25862 -1.262415 4.760183 0 4.760183 
z
" style="stroke: #ffa500; stroke-opacity: 0.2; stroke-width: 2"/>
    </defs>
    <g clip-path="url(#pd43486740f)">
     <use xlink:href="#mcd95dbbb00" x="125.2125" y="249.151546" style="fill: #ff0000; fill-opacity: 0.2; stroke: #ffa500; stroke-opacity: 0.2; stroke-width: 2"/>
    </g>
   </g>
   <g id="line2d_28">
    <path d="M 194.9625 213.488941 
" clip-path="url(#pd43486740f)" style="fill: none; stroke: #ffffff; stroke-opacity: 0.2; stroke-width: 1.5; stroke-linecap: square"/>
    <defs>
     <path id="m2e608bcb69" d="M 0 7.290913 
C 1.933573 7.290913 3.788212 6.522697 5.155454 5.155454 
C 6.522697 3.788212 7.290913 1.933573 7.290913 0 
C 7.290913 -1.933573 6.522697 -3.788212 5.155454 -5.155454 
C 3.788212 -6.522697 1.933573 -7.290913 0 -7.290913 
C -1.933573 -7.290913 -3.788212 -6.522697 -5.155454 -5.155454 
C -6.522697 -3.788212 -7.290913 -1.933573 -7.290913 0 
C -7.290913 1.933573 -6.522697 3.788212 -5.155454 5.155454 
C -3.788212 6.522697 -1.933573 7.290913 0 7.290913 
z
" style="stroke: #ffa500; stroke-opacity: 0.2; stroke-width: 2"/>
    </defs>
    <g clip-path="url(#pd43486740f)">
     <use xlink:href="#m2e608bcb69" x="194.9625" y="213.488941" style="fill: #ffffff; fill-opacity: 0.2; stroke: #ffa500; stroke-opacity: 0.2; stroke-width: 2"/>
    </g>
   </g>
   <g id="line2d_29">
    <path d="M 194.9625 213.488941 
" clip-path="url(#pd43486740f)" style="fill: none; stroke: #ff0000; stroke-opacity: 0.2; stroke-width: 1.5; stroke-linecap: square"/>
    <defs>
     <path id="m2a9f7393cd" d="M 0 7.290913 
C 1.933573 7.290913 3.788212 6.522697 5.155454 5.155454 
C 6.522697 3.788212 7.290913 1.933573 7.290913 0 
C 7.290913 -1.933573 6.522697 -3.788212 5.155454 -5.155454 
C 3.788212 -6.522697 1.933573 -7.290913 0 -7.290913 
C -1.933573 -7.290913 -3.788212 -6.522697 -5.155454 -5.155454 
C -6.522697 -3.788212 -7.290913 -1.933573 -7.290913 0 
C -7.290913 1.933573 -6.522697 3.788212 -5.155454 5.155454 
C -3.788212 6.522697 -1.933573 7.290913 0 7.290913 
z
" style="stroke: #ffa500; stroke-opacity: 0.2; stroke-width: 2"/>
    </defs>
    <g clip-path="url(#pd43486740f)">
     <use xlink:href="#m2a9f7393cd" x="194.9625" y="213.488941" style="fill: #ff0000; fill-opacity: 0.2; stroke: #ffa500; stroke-opacity: 0.2; stroke-width: 2"/>
    </g>
   </g>
   <g id="line2d_30">
    <path d="M 264.7125 149.805717 
" clip-path="url(#pd43486740f)" style="fill: none; stroke: #ffffff; stroke-opacity: 0.2; stroke-width: 1.5; stroke-linecap: square"/>
    <defs>
     <path id="m065a77d6c1" d="M 0 7.170403 
C 1.901613 7.170403 3.725597 6.414884 5.07024 5.07024 
C 6.414884 3.725597 7.170403 1.901613 7.170403 0 
C 7.170403 -1.901613 6.414884 -3.725597 5.07024 -5.07024 
C 3.725597 -6.414884 1.901613 -7.170403 0 -7.170403 
C -1.901613 -7.170403 -3.725597 -6.414884 -5.07024 -5.07024 
C -6.414884 -3.725597 -7.170403 -1.901613 -7.170403 0 
C -7.170403 1.901613 -6.414884 3.725597 -5.07024 5.07024 
C -3.725597 6.414884 -1.901613 7.170403 0 7.170403 
z
" style="stroke: #ffa500; stroke-opacity: 0.2; stroke-width: 2"/>
    </defs>
    <g clip-path="url(#pd43486740f)">
     <use xlink:href="#m065a77d6c1" x="264.7125" y="149.805717" style="fill: #ffffff; fill-opacity: 0.2; stroke: #ffa500; stroke-opacity: 0.2; stroke-width: 2"/>
    </g>
   </g>
   <g id="line2d_31">
    <path d="M 264.7125 149.805717 
" clip-path="url(#pd43486740f)" style="fill: none; stroke: #ff0000; stroke-opacity: 0.2; stroke-width: 1.5; stroke-linecap: square"/>
    <defs>
     <path id="m6cc46a2013" d="M 0 7.170403 
C 1.901613 7.170403 3.725597 6.414884 5.07024 5.07024 
C 6.414884 3.725597 7.170403 1.901613 7.170403 0 
C 7.170403 -1.901613 6.414884 -3.725597 5.07024 -5.07024 
C 3.725597 -6.414884 1.901613 -7.170403 0 -7.170403 
C -1.901613 -7.170403 -3.725597 -6.414884 -5.07024 -5.07024 
C -6.414884 -3.725597 -7.170403 -1.901613 -7.170403 0 
C -7.170403 1.901613 -6.414884 3.725597 -5.07024 5.07024 
C -3.725597 6.414884 -1.901613 7.170403 0 7.170403 
z
" style="stroke: #ffa500; stroke-opacity: 0.2; stroke-width: 2"/>
    </defs>
    <g clip-path="url(#pd43486740f)">
     <use xlink:href="#m6cc46a2013" x="264.7125" y="149.805717" style="fill: #ff0000; fill-opacity: 0.2; stroke: #ffa500; stroke-opacity: 0.2; stroke-width: 2"/>
    </g>
   </g>
   <g id="line2d_32">
    <path d="M 174.0375 221.130928 
" clip-path="url(#pd43486740f)" style="fill: none; stroke: #ffffff; stroke-opacity: 0.2; stroke-width: 1.5; stroke-linecap: square"/>
    <defs>
     <path id="m7e703fb116" d="M 0 14.461316 
C 3.835186 14.461316 7.513809 12.937581 10.225695 10.225695 
C 12.937581 7.513809 14.461316 3.835186 14.461316 0 
C 14.461316 -3.835186 12.937581 -7.513809 10.225695 -10.225695 
C 7.513809 -12.937581 3.835186 -14.461316 0 -14.461316 
C -3.835186 -14.461316 -7.513809 -12.937581 -10.225695 -10.225695 
C -12.937581 -7.513809 -14.461316 -3.835186 -14.461316 0 
C -14.461316 3.835186 -12.937581 7.513809 -10.225695 10.225695 
C -7.513809 12.937581 -3.835186 14.461316 0 14.461316 
z
" style="stroke: #ff00ff; stroke-opacity: 0.2; stroke-width: 2"/>
    </defs>
    <g clip-path="url(#pd43486740f)">
     <use xlink:href="#m7e703fb116" x="174.0375" y="221.130928" style="fill: #ffffff; fill-opacity: 0.2; stroke: #ff00ff; stroke-opacity: 0.2; stroke-width: 2"/>
    </g>
   </g>
   <g id="line2d_33">
    <path d="M 174.0375 221.130928 
" clip-path="url(#pd43486740f)" style="fill: none; stroke: #0000ff; stroke-opacity: 0.2; stroke-width: 1.5; stroke-linecap: square"/>
    <defs>
     <path id="m8611970341" d="M 0 14.461316 
C 3.835186 14.461316 7.513809 12.937581 10.225695 10.225695 
C 12.937581 7.513809 14.461316 3.835186 14.461316 0 
C 14.461316 -3.835186 12.937581 -7.513809 10.225695 -10.225695 
C 7.513809 -12.937581 3.835186 -14.461316 0 -14.461316 
C -3.835186 -14.461316 -7.513809 -12.937581 -10.225695 -10.225695 
C -12.937581 -7.513809 -14.461316 -3.835186 -14.461316 0 
C -14.461316 3.835186 -12.937581 7.513809 -10.225695 10.225695 
C -7.513809 12.937581 -3.835186 14.461316 0 14.461316 
z
" style="stroke: #ff00ff; stroke-opacity: 0.2; stroke-width: 2"/>
    </defs>
    <g clip-path="url(#pd43486740f)">
     <use xlink:href="#m8611970341" x="174.0375" y="221.130928" style="fill: #0000ff; fill-opacity: 0.2; stroke: #ff00ff; stroke-opacity: 0.2; stroke-width: 2"/>
    </g>
   </g>
   <g id="line2d_34">
    <path d="M 264.7125 216.03627 
" clip-path="url(#pd43486740f)" style="fill: none; stroke: #ffffff; stroke-opacity: 0.2; stroke-width: 1.5; stroke-linecap: square"/>
    <defs>
     <path id="m74a1cdfac1" d="M 0 19.884309 
C 5.273381 19.884309 10.331487 17.789173 14.06033 14.06033 
C 17.789173 10.331487 19.884309 5.273381 19.884309 0 
C 19.884309 -5.273381 17.789173 -10.331487 14.06033 -14.06033 
C 10.331487 -17.789173 5.273381 -19.884309 0 -19.884309 
C -5.273381 -19.884309 -10.331487 -17.789173 -14.06033 -14.06033 
C -17.789173 -10.331487 -19.884309 -5.273381 -19.884309 0 
C -19.884309 5.273381 -17.789173 10.331487 -14.06033 14.06033 
C -10.331487 17.789173 -5.273381 19.884309 0 19.884309 
z
" style="stroke: #ff00ff; stroke-opacity: 0.2; stroke-width: 2"/>
    </defs>
    <g clip-path="url(#pd43486740f)">
     <use xlink:href="#m74a1cdfac1" x="264.7125" y="216.03627" style="fill: #ffffff; fill-opacity: 0.2; stroke: #ff00ff; stroke-opacity: 0.2; stroke-width: 2"/>
    </g>
   </g>
   <g id="line2d_35">
    <path d="M 264.7125 216.03627 
" clip-path="url(#pd43486740f)" style="fill: none; stroke: #ff0000; stroke-opacity: 0.2; stroke-width: 1.5; stroke-linecap: square"/>
    <defs>
     <path id="m2631b353f4" d="M 0 19.884309 
C 5.273381 19.884309 10.331487 17.789173 14.06033 14.06033 
C 17.789173 10.331487 19.884309 5.273381 19.884309 0 
C 19.884309 -5.273381 17.789173 -10.331487 14.06033 -14.06033 
C 10.331487 -17.789173 5.273381 -19.884309 0 -19.884309 
C -5.273381 -19.884309 -10.331487 -17.789173 -14.06033 -14.06033 
C -17.789173 -10.331487 -19.884309 -5.273381 -19.884309 0 
C -19.884309 5.273381 -17.789173 10.331487 -14.06033 14.06033 
C -10.331487 17.789173 -5.273381 19.884309 0 19.884309 
z
" style="stroke: #ff00ff; stroke-opacity: 0.2; stroke-width: 2"/>
    </defs>
    <g clip-path="url(#pd43486740f)">
     <use xlink:href="#m2631b353f4" x="264.7125" y="216.03627" style="fill: #ff0000; fill-opacity: 0.2; stroke: #ff00ff; stroke-opacity: 0.2; stroke-width: 2"/>
    </g>
   </g>
   <g id="line2d_36">
    <path d="M 264.7125 246.604217 
" clip-path="url(#pd43486740f)" style="fill: none; stroke: #ffffff; stroke-opacity: 0.2; stroke-width: 1.5; stroke-linecap: square"/>
    <defs>
     <path id="m51a75a6948" d="M 0 4.820439 
C 1.278395 4.820439 2.504603 4.312527 3.408565 3.408565 
C 4.312527 2.504603 4.820439 1.278395 4.820439 0 
C 4.820439 -1.278395 4.312527 -2.504603 3.408565 -3.408565 
C 2.504603 -4.312527 1.278395 -4.820439 0 -4.820439 
C -1.278395 -4.820439 -2.504603 -4.312527 -3.408565 -3.408565 
C -4.312527 -2.504603 -4.820439 -1.278395 -4.820439 0 
C -4.820439 1.278395 -4.312527 2.504603 -3.408565 3.408565 
C -2.504603 4.312527 -1.278395 4.820439 0 4.820439 
z
" style="stroke: #ff00ff; stroke-opacity: 0.2; stroke-width: 2"/>
    </defs>
    <g clip-path="url(#pd43486740f)">
     <use xlink:href="#m51a75a6948" x="264.7125" y="246.604217" style="fill: #ffffff; fill-opacity: 0.2; stroke: #ff00ff; stroke-opacity: 0.2; stroke-width: 2"/>
    </g>
   </g>
   <g id="line2d_37">
    <path d="M 264.7125 246.604217 
" clip-path="url(#pd43486740f)" style="fill: none; stroke: #ff0000; stroke-opacity: 0.2; stroke-width: 1.5; stroke-linecap: square"/>
    <defs>
     <path id="mb59b517d4d" d="M 0 4.820439 
C 1.278395 4.820439 2.504603 4.312527 3.408565 3.408565 
C 4.312527 2.504603 4.820439 1.278395 4.820439 0 
C 4.820439 -1.278395 4.312527 -2.504603 3.408565 -3.408565 
C 2.504603 -4.312527 1.278395 -4.820439 0 -4.820439 
C -1.278395 -4.820439 -2.504603 -4.312527 -3.408565 -3.408565 
C -4.312527 -2.504603 -4.820439 -1.278395 -4.820439 0 
C -4.820439 1.278395 -4.312527 2.504603 -3.408565 3.408565 
C -2.504603 4.312527 -1.278395 4.820439 0 4.820439 
z
" style="stroke: #ff00ff; stroke-opacity: 0.2; stroke-width: 2"/>
    </defs>
    <g clip-path="url(#pd43486740f)">
     <use xlink:href="#mb59b517d4d" x="264.7125" y="246.604217" style="fill: #ff0000; fill-opacity: 0.2; stroke: #ff00ff; stroke-opacity: 0.2; stroke-width: 2"/>
    </g>
   </g>
   <g id="line2d_38">
    <path d="M 174.0375 162.542362 
" clip-path="url(#pd43486740f)" style="fill: none; stroke: #ffffff; stroke-opacity: 0.2; stroke-width: 1.5; stroke-linecap: square"/>
    <defs>
     <path id="maad80f3506" d="M 0 13.195951 
C 3.499607 13.195951 6.85635 11.805542 9.330946 9.330946 
C 11.805542 6.85635 13.195951 3.499607 13.195951 0 
C 13.195951 -3.499607 11.805542 -6.85635 9.330946 -9.330946 
C 6.85635 -11.805542 3.499607 -13.195951 0 -13.195951 
C -3.499607 -13.195951 -6.85635 -11.805542 -9.330946 -9.330946 
C -11.805542 -6.85635 -13.195951 -3.499607 -13.195951 0 
C -13.195951 3.499607 -11.805542 6.85635 -9.330946 9.330946 
C -6.85635 11.805542 -3.499607 13.195951 0 13.195951 
z
" style="stroke: #ff00ff; stroke-opacity: 0.2; stroke-width: 2"/>
    </defs>
    <g clip-path="url(#pd43486740f)">
     <use xlink:href="#maad80f3506" x="174.0375" y="162.542362" style="fill: #ffffff; fill-opacity: 0.2; stroke: #ff00ff; stroke-opacity: 0.2; stroke-width: 2"/>
    </g>
   </g>
   <g id="line2d_39">
    <path d="M 174.0375 162.542362 
" clip-path="url(#pd43486740f)" style="fill: none; stroke: #0000ff; stroke-opacity: 0.2; stroke-width: 1.5; stroke-linecap: square"/>
    <defs>
     <path id="ma95e4c0100" d="M 0 13.195951 
C 3.499607 13.195951 6.85635 11.805542 9.330946 9.330946 
C 11.805542 6.85635 13.195951 3.499607 13.195951 0 
C 13.195951 -3.499607 11.805542 -6.85635 9.330946 -9.330946 
C 6.85635 -11.805542 3.499607 -13.195951 0 -13.195951 
C -3.499607 -13.195951 -6.85635 -11.805542 -9.330946 -9.330946 
C -11.805542 -6.85635 -13.195951 -3.499607 -13.195951 0 
C -13.195951 3.499607 -11.805542 6.85635 -9.330946 9.330946 
C -6.85635 11.805542 -3.499607 13.195951 0 13.195951 
z
" style="stroke: #ff00ff; stroke-opacity: 0.2; stroke-width: 2"/>
    </defs>
    <g clip-path="url(#pd43486740f)">
     <use xlink:href="#ma95e4c0100" x="174.0375" y="162.542362" style="fill: #0000ff; fill-opacity: 0.2; stroke: #ff00ff; stroke-opacity: 0.2; stroke-width: 2"/>
    </g>
   </g>
   <g id="line2d_40">
    <path d="M 174.0375 246.604217 
" clip-path="url(#pd43486740f)" style="fill: none; stroke: #ffffff; stroke-opacity: 0.2; stroke-width: 1.5; stroke-linecap: square"/>
    <defs>
     <path id="mdfda060f73" d="M 0 2.892263 
C 0.767037 2.892263 1.502762 2.587516 2.045139 2.045139 
C 2.587516 1.502762 2.892263 0.767037 2.892263 0 
C 2.892263 -0.767037 2.587516 -1.502762 2.045139 -2.045139 
C 1.502762 -2.587516 0.767037 -2.892263 0 -2.892263 
C -0.767037 -2.892263 -1.502762 -2.587516 -2.045139 -2.045139 
C -2.587516 -1.502762 -2.892263 -0.767037 -2.892263 0 
C -2.892263 0.767037 -2.587516 1.502762 -2.045139 2.045139 
C -1.502762 2.587516 -0.767037 2.892263 0 2.892263 
z
" style="stroke: #ff00ff; stroke-opacity: 0.2; stroke-width: 2"/>
    </defs>
    <g clip-path="url(#pd43486740f)">
     <use xlink:href="#mdfda060f73" x="174.0375" y="246.604217" style="fill: #ffffff; fill-opacity: 0.2; stroke: #ff00ff; stroke-opacity: 0.2; stroke-width: 2"/>
    </g>
   </g>
   <g id="line2d_41">
    <path d="M 174.0375 246.604217 
" clip-path="url(#pd43486740f)" style="fill: none; stroke: #0000ff; stroke-opacity: 0.2; stroke-width: 1.5; stroke-linecap: square"/>
    <defs>
     <path id="m06be8770ba" d="M 0 2.892263 
C 0.767037 2.892263 1.502762 2.587516 2.045139 2.045139 
C 2.587516 1.502762 2.892263 0.767037 2.892263 0 
C 2.892263 -0.767037 2.587516 -1.502762 2.045139 -2.045139 
C 1.502762 -2.587516 0.767037 -2.892263 0 -2.892263 
C -0.767037 -2.892263 -1.502762 -2.587516 -2.045139 -2.045139 
C -2.587516 -1.502762 -2.892263 -0.767037 -2.892263 0 
C -2.892263 0.767037 -2.587516 1.502762 -2.045139 2.045139 
C -1.502762 2.587516 -0.767037 2.892263 0 2.892263 
z
" style="stroke: #ff00ff; stroke-opacity: 0.2; stroke-width: 2"/>
    </defs>
    <g clip-path="url(#pd43486740f)">
     <use xlink:href="#m06be8770ba" x="174.0375" y="246.604217" style="fill: #0000ff; fill-opacity: 0.2; stroke: #ff00ff; stroke-opacity: 0.2; stroke-width: 2"/>
    </g>
   </g>
   <g id="line2d_42">
    <path d="M 243.7875 134.521743 
" clip-path="url(#pd43486740f)" style="fill: none; stroke: #ffffff; stroke-opacity: 0.2; stroke-width: 1.5; stroke-linecap: square"/>
    <defs>
     <path id="m99e3dcbbde" d="M 0 5.001205 
C 1.326335 5.001205 2.598526 4.474247 3.536386 3.536386 
C 4.474247 2.598526 5.001205 1.326335 5.001205 0 
C 5.001205 -1.326335 4.474247 -2.598526 3.536386 -3.536386 
C 2.598526 -4.474247 1.326335 -5.001205 0 -5.001205 
C -1.326335 -5.001205 -2.598526 -4.474247 -3.536386 -3.536386 
C -4.474247 -2.598526 -5.001205 -1.326335 -5.001205 0 
C -5.001205 1.326335 -4.474247 2.598526 -3.536386 3.536386 
C -2.598526 4.474247 -1.326335 5.001205 0 5.001205 
z
" style="stroke: #ffa500; stroke-opacity: 0.2; stroke-width: 2"/>
    </defs>
    <g clip-path="url(#pd43486740f)">
     <use xlink:href="#m99e3dcbbde" x="243.7875" y="134.521743" style="fill: #ffffff; fill-opacity: 0.2; stroke: #ffa500; stroke-opacity: 0.2; stroke-width: 2"/>
    </g>
   </g>
   <g id="line2d_43">
    <path d="M 243.7875 134.521743 
" clip-path="url(#pd43486740f)" style="fill: none; stroke: #0000ff; stroke-opacity: 0.2; stroke-width: 1.5; stroke-linecap: square"/>
    <defs>
     <path id="m91df22cedd" d="M 0 5.001205 
C 1.326335 5.001205 2.598526 4.474247 3.536386 3.536386 
C 4.474247 2.598526 5.001205 1.326335 5.001205 0 
C 5.001205 -1.326335 4.474247 -2.598526 3.536386 -3.536386 
C 2.598526 -4.474247 1.326335 -5.001205 0 -5.001205 
C -1.326335 -5.001205 -2.598526 -4.474247 -3.536386 -3.536386 
C -4.474247 -2.598526 -5.001205 -1.326335 -5.001205 0 
C -5.001205 1.326335 -4.474247 2.598526 -3.536386 3.536386 
C -2.598526 4.474247 -1.326335 5.001205 0 5.001205 
z
" style="stroke: #ffa500; stroke-opacity: 0.2; stroke-width: 2"/>
    </defs>
    <g clip-path="url(#pd43486740f)">
     <use xlink:href="#m91df22cedd" x="243.7875" y="134.521743" style="fill: #0000ff; fill-opacity: 0.2; stroke: #ffa500; stroke-opacity: 0.2; stroke-width: 2"/>
    </g>
   </g>
   <g id="line2d_44">
    <path d="M 174.0375 185.468322 
" clip-path="url(#pd43486740f)" style="fill: none; stroke: #ffffff; stroke-opacity: 0.2; stroke-width: 1.5; stroke-linecap: square"/>
    <defs>
     <path id="m22eceb3f8f" d="M 0 8.074235 
C 2.141312 8.074235 4.19521 7.223482 5.709346 5.709346 
C 7.223482 4.19521 8.074235 2.141312 8.074235 0 
C 8.074235 -2.141312 7.223482 -4.19521 5.709346 -5.709346 
C 4.19521 -7.223482 2.141312 -8.074235 0 -8.074235 
C -2.141312 -8.074235 -4.19521 -7.223482 -5.709346 -5.709346 
C -7.223482 -4.19521 -8.074235 -2.141312 -8.074235 0 
C -8.074235 2.141312 -7.223482 4.19521 -5.709346 5.709346 
C -4.19521 7.223482 -2.141312 8.074235 0 8.074235 
z
" style="stroke: #ffa500; stroke-opacity: 0.2; stroke-width: 2"/>
    </defs>
    <g clip-path="url(#pd43486740f)">
     <use xlink:href="#m22eceb3f8f" x="174.0375" y="185.468322" style="fill: #ffffff; fill-opacity: 0.2; stroke: #ffa500; stroke-opacity: 0.2; stroke-width: 2"/>
    </g>
   </g>
   <g id="line2d_45">
    <path d="M 174.0375 185.468322 
" clip-path="url(#pd43486740f)" style="fill: none; stroke: #0000ff; stroke-opacity: 0.2; stroke-width: 1.5; stroke-linecap: square"/>
    <defs>
     <path id="m8a4de7214f" d="M 0 8.074235 
C 2.141312 8.074235 4.19521 7.223482 5.709346 5.709346 
C 7.223482 4.19521 8.074235 2.141312 8.074235 0 
C 8.074235 -2.141312 7.223482 -4.19521 5.709346 -5.709346 
C 4.19521 -7.223482 2.141312 -8.074235 0 -8.074235 
C -2.141312 -8.074235 -4.19521 -7.223482 -5.709346 -5.709346 
C -7.223482 -4.19521 -8.074235 -2.141312 -8.074235 0 
C -8.074235 2.141312 -7.223482 4.19521 -5.709346 5.709346 
C -4.19521 7.223482 -2.141312 8.074235 0 8.074235 
z
" style="stroke: #ffa500; stroke-opacity: 0.2; stroke-width: 2"/>
    </defs>
    <g clip-path="url(#pd43486740f)">
     <use xlink:href="#m8a4de7214f" x="174.0375" y="185.468322" style="fill: #0000ff; fill-opacity: 0.2; stroke: #ffa500; stroke-opacity: 0.2; stroke-width: 2"/>
    </g>
   </g>
   <g id="line2d_46">
    <path d="M 264.7125 203.299625 
" clip-path="url(#pd43486740f)" style="fill: none; stroke: #ffffff; stroke-opacity: 0.2; stroke-width: 1.5; stroke-linecap: square"/>
    <defs>
     <path id="mf057c761c2" d="M 0 2.711497 
C 0.719097 2.711497 1.408839 2.425796 1.917318 1.917318 
C 2.425796 1.408839 2.711497 0.719097 2.711497 0 
C 2.711497 -0.719097 2.425796 -1.408839 1.917318 -1.917318 
C 1.408839 -2.425796 0.719097 -2.711497 0 -2.711497 
C -0.719097 -2.711497 -1.408839 -2.425796 -1.917318 -1.917318 
C -2.425796 -1.408839 -2.711497 -0.719097 -2.711497 0 
C -2.711497 0.719097 -2.425796 1.408839 -1.917318 1.917318 
C -1.408839 2.425796 -0.719097 2.711497 0 2.711497 
z
" style="stroke: #ff00ff; stroke-opacity: 0.2; stroke-width: 2"/>
    </defs>
    <g clip-path="url(#pd43486740f)">
     <use xlink:href="#mf057c761c2" x="264.7125" y="203.299625" style="fill: #ffffff; fill-opacity: 0.2; stroke: #ff00ff; stroke-opacity: 0.2; stroke-width: 2"/>
    </g>
   </g>
   <g id="line2d_47">
    <path d="M 264.7125 203.299625 
" clip-path="url(#pd43486740f)" style="fill: none; stroke: #ff0000; stroke-opacity: 0.2; stroke-width: 1.5; stroke-linecap: square"/>
    <defs>
     <path id="mb2d7bb0bd9" d="M 0 2.711497 
C 0.719097 2.711497 1.408839 2.425796 1.917318 1.917318 
C 2.425796 1.408839 2.711497 0.719097 2.711497 0 
C 2.711497 -0.719097 2.425796 -1.408839 1.917318 -1.917318 
C 1.408839 -2.425796 0.719097 -2.711497 0 -2.711497 
C -0.719097 -2.711497 -1.408839 -2.425796 -1.917318 -1.917318 
C -2.425796 -1.408839 -2.711497 -0.719097 -2.711497 0 
C -2.711497 0.719097 -2.425796 1.408839 -1.917318 1.917318 
C -1.408839 2.425796 -0.719097 2.711497 0 2.711497 
z
" style="stroke: #ff00ff; stroke-opacity: 0.2; stroke-width: 2"/>
    </defs>
    <g clip-path="url(#pd43486740f)">
     <use xlink:href="#mb2d7bb0bd9" x="264.7125" y="203.299625" style="fill: #ff0000; fill-opacity: 0.2; stroke: #ff00ff; stroke-opacity: 0.2; stroke-width: 2"/>
    </g>
   </g>
   <g id="line2d_48">
    <path d="M 264.7125 195.657638 
" clip-path="url(#pd43486740f)" style="fill: none; stroke: #ffffff; stroke-opacity: 0.2; stroke-width: 1.5; stroke-linecap: square"/>
    <defs>
     <path id="ma7198cd1b2" d="M 0 8.375512 
C 2.221212 8.375512 4.351748 7.493015 5.922381 5.922381 
C 7.493015 4.351748 8.375512 2.221212 8.375512 0 
C 8.375512 -2.221212 7.493015 -4.351748 5.922381 -5.922381 
C 4.351748 -7.493015 2.221212 -8.375512 0 -8.375512 
C -2.221212 -8.375512 -4.351748 -7.493015 -5.922381 -5.922381 
C -7.493015 -4.351748 -8.375512 -2.221212 -8.375512 0 
C -8.375512 2.221212 -7.493015 4.351748 -5.922381 5.922381 
C -4.351748 7.493015 -2.221212 8.375512 0 8.375512 
z
" style="stroke: #ff00ff; stroke-opacity: 0.2; stroke-width: 2"/>
    </defs>
    <g clip-path="url(#pd43486740f)">
     <use xlink:href="#ma7198cd1b2" x="264.7125" y="195.657638" style="fill: #ffffff; fill-opacity: 0.2; stroke: #ff00ff; stroke-opacity: 0.2; stroke-width: 2"/>
    </g>
   </g>
   <g id="line2d_49">
    <path d="M 264.7125 195.657638 
" clip-path="url(#pd43486740f)" style="fill: none; stroke: #ff0000; stroke-opacity: 0.2; stroke-width: 1.5; stroke-linecap: square"/>
    <defs>
     <path id="m71d2578d8d" d="M 0 8.375512 
C 2.221212 8.375512 4.351748 7.493015 5.922381 5.922381 
C 7.493015 4.351748 8.375512 2.221212 8.375512 0 
C 8.375512 -2.221212 7.493015 -4.351748 5.922381 -5.922381 
C 4.351748 -7.493015 2.221212 -8.375512 0 -8.375512 
C -2.221212 -8.375512 -4.351748 -7.493015 -5.922381 -5.922381 
C -7.493015 -4.351748 -8.375512 -2.221212 -8.375512 0 
C -8.375512 2.221212 -7.493015 4.351748 -5.922381 5.922381 
C -4.351748 7.493015 -2.221212 8.375512 0 8.375512 
z
" style="stroke: #ff00ff; stroke-opacity: 0.2; stroke-width: 2"/>
    </defs>
    <g clip-path="url(#pd43486740f)">
     <use xlink:href="#m71d2578d8d" x="264.7125" y="195.657638" style="fill: #ff0000; fill-opacity: 0.2; stroke: #ff00ff; stroke-opacity: 0.2; stroke-width: 2"/>
    </g>
   </g>
   <g id="line2d_50">
    <path d="M 104.2875 297.550797 
" clip-path="url(#pd43486740f)" style="fill: none; stroke: #ffffff; stroke-opacity: 0.2; stroke-width: 1.5; stroke-linecap: square"/>
    <defs>
     <path id="m878f3dd2ba" d="M 0 2.651241 
C 0.703117 2.651241 1.377532 2.37189 1.874711 1.874711 
C 2.37189 1.377532 2.651241 0.703117 2.651241 0 
C 2.651241 -0.703117 2.37189 -1.377532 1.874711 -1.874711 
C 1.377532 -2.37189 0.703117 -2.651241 0 -2.651241 
C -0.703117 -2.651241 -1.377532 -2.37189 -1.874711 -1.874711 
C -2.37189 -1.377532 -2.651241 -0.703117 -2.651241 0 
C -2.651241 0.703117 -2.37189 1.377532 -1.874711 1.874711 
C -1.377532 2.37189 -0.703117 2.651241 0 2.651241 
z
" style="stroke: #ff00ff; stroke-opacity: 0.2; stroke-width: 2"/>
    </defs>
    <g clip-path="url(#pd43486740f)">
     <use xlink:href="#m878f3dd2ba" x="104.2875" y="297.550797" style="fill: #ffffff; fill-opacity: 0.2; stroke: #ff00ff; stroke-opacity: 0.2; stroke-width: 2"/>
    </g>
   </g>
   <g id="line2d_51">
    <path d="M 104.2875 297.550797 
" clip-path="url(#pd43486740f)" style="fill: none; stroke: #0000ff; stroke-opacity: 0.2; stroke-width: 1.5; stroke-linecap: square"/>
    <defs>
     <path id="m63082db542" d="M 0 2.651241 
C 0.703117 2.651241 1.377532 2.37189 1.874711 1.874711 
C 2.37189 1.377532 2.651241 0.703117 2.651241 0 
C 2.651241 -0.703117 2.37189 -1.377532 1.874711 -1.874711 
C 1.377532 -2.37189 0.703117 -2.651241 0 -2.651241 
C -0.703117 -2.651241 -1.377532 -2.37189 -1.874711 -1.874711 
C -2.37189 -1.377532 -2.651241 -0.703117 -2.651241 0 
C -2.651241 0.703117 -2.37189 1.377532 -1.874711 1.874711 
C -1.377532 2.37189 -0.703117 2.651241 0 2.651241 
z
" style="stroke: #ff00ff; stroke-opacity: 0.2; stroke-width: 2"/>
    </defs>
    <g clip-path="url(#pd43486740f)">
     <use xlink:href="#m63082db542" x="104.2875" y="297.550797" style="fill: #0000ff; fill-opacity: 0.2; stroke: #ff00ff; stroke-opacity: 0.2; stroke-width: 2"/>
    </g>
   </g>
   <g id="line2d_52">
    <path d="M 243.7875 279.719494 
" clip-path="url(#pd43486740f)" style="fill: none; stroke: #ffffff; stroke-opacity: 0.2; stroke-width: 1.5; stroke-linecap: square"/>
    <defs>
     <path id="mc5cfad8efd" d="M 0 10.363943 
C 2.74855 10.363943 5.384896 9.271933 7.328414 7.328414 
C 9.271933 5.384896 10.363943 2.74855 10.363943 0 
C 10.363943 -2.74855 9.271933 -5.384896 7.328414 -7.328414 
C 5.384896 -9.271933 2.74855 -10.363943 0 -10.363943 
C -2.74855 -10.363943 -5.384896 -9.271933 -7.328414 -7.328414 
C -9.271933 -5.384896 -10.363943 -2.74855 -10.363943 0 
C -10.363943 2.74855 -9.271933 5.384896 -7.328414 7.328414 
C -5.384896 9.271933 -2.74855 10.363943 0 10.363943 
z
" style="stroke: #000000; stroke-opacity: 0.2; stroke-width: 2"/>
    </defs>
    <g clip-path="url(#pd43486740f)">
     <use xlink:href="#mc5cfad8efd" x="243.7875" y="279.719494" style="fill: #ffffff; fill-opacity: 0.2; stroke: #000000; stroke-opacity: 0.2; stroke-width: 2"/>
    </g>
   </g>
   <g id="line2d_53">
    <path d="M 243.7875 279.719494 
" clip-path="url(#pd43486740f)" style="fill: none; stroke: #0000ff; stroke-opacity: 0.2; stroke-width: 1.5; stroke-linecap: square"/>
    <defs>
     <path id="mcd53825cd7" d="M 0 10.363943 
C 2.74855 10.363943 5.384896 9.271933 7.328414 7.328414 
C 9.271933 5.384896 10.363943 2.74855 10.363943 0 
C 10.363943 -2.74855 9.271933 -5.384896 7.328414 -7.328414 
C 5.384896 -9.271933 2.74855 -10.363943 0 -10.363943 
C -2.74855 -10.363943 -5.384896 -9.271933 -7.328414 -7.328414 
C -9.271933 -5.384896 -10.363943 -2.74855 -10.363943 0 
C -10.363943 2.74855 -9.271933 5.384896 -7.328414 7.328414 
C -5.384896 9.271933 -2.74855 10.363943 0 10.363943 
z
" style="stroke: #000000; stroke-opacity: 0.2; stroke-width: 2"/>
    </defs>
    <g clip-path="url(#pd43486740f)">
     <use xlink:href="#mcd53825cd7" x="243.7875" y="279.719494" style="fill: #0000ff; fill-opacity: 0.2; stroke: #000000; stroke-opacity: 0.2; stroke-width: 2"/>
    </g>
   </g>
   <g id="line2d_54">
    <path d="M 174.0375 226.225586 
" clip-path="url(#pd43486740f)" style="fill: none; stroke: #ffffff; stroke-opacity: 0.2; stroke-width: 1.5; stroke-linecap: square"/>
    <defs>
     <path id="mecee2645bc" d="M 0 2.53073 
C 0.671158 2.53073 1.314917 2.264077 1.789497 1.789497 
C 2.264077 1.314917 2.53073 0.671158 2.53073 0 
C 2.53073 -0.671158 2.264077 -1.314917 1.789497 -1.789497 
C 1.314917 -2.264077 0.671158 -2.53073 0 -2.53073 
C -0.671158 -2.53073 -1.314917 -2.264077 -1.789497 -1.789497 
C -2.264077 -1.314917 -2.53073 -0.671158 -2.53073 0 
C -2.53073 0.671158 -2.264077 1.314917 -1.789497 1.789497 
C -1.314917 2.264077 -0.671158 2.53073 0 2.53073 
z
" style="stroke: #000000; stroke-opacity: 0.2; stroke-width: 2"/>
    </defs>
    <g clip-path="url(#pd43486740f)">
     <use xlink:href="#mecee2645bc" x="174.0375" y="226.225586" style="fill: #ffffff; fill-opacity: 0.2; stroke: #000000; stroke-opacity: 0.2; stroke-width: 2"/>
    </g>
   </g>
   <g id="line2d_55">
    <path d="M 174.0375 226.225586 
" clip-path="url(#pd43486740f)" style="fill: none; stroke: #0000ff; stroke-opacity: 0.2; stroke-width: 1.5; stroke-linecap: square"/>
    <defs>
     <path id="mf4023f7ebd" d="M 0 2.53073 
C 0.671158 2.53073 1.314917 2.264077 1.789497 1.789497 
C 2.264077 1.314917 2.53073 0.671158 2.53073 0 
C 2.53073 -0.671158 2.264077 -1.314917 1.789497 -1.789497 
C 1.314917 -2.264077 0.671158 -2.53073 0 -2.53073 
C -0.671158 -2.53073 -1.314917 -2.264077 -1.789497 -1.789497 
C -2.264077 -1.314917 -2.53073 -0.671158 -2.53073 0 
C -2.53073 0.671158 -2.264077 1.314917 -1.789497 1.789497 
C -1.314917 2.264077 -0.671158 2.53073 0 2.53073 
z
" style="stroke: #000000; stroke-opacity: 0.2; stroke-width: 2"/>
    </defs>
    <g clip-path="url(#pd43486740f)">
     <use xlink:href="#mf4023f7ebd" x="174.0375" y="226.225586" style="fill: #0000ff; fill-opacity: 0.2; stroke: #000000; stroke-opacity: 0.2; stroke-width: 2"/>
    </g>
   </g>
   <g id="line2d_56">
    <path d="M 174.0375 289.90881 
" clip-path="url(#pd43486740f)" style="fill: none; stroke: #ffffff; stroke-opacity: 0.2; stroke-width: 1.5; stroke-linecap: square"/>
    <defs>
     <path id="mfd084e0e58" d="M 0 1.446132 
C 0.383519 1.446132 0.751381 1.293758 1.022569 1.022569 
C 1.293758 0.751381 1.446132 0.383519 1.446132 0 
C 1.446132 -0.383519 1.293758 -0.751381 1.022569 -1.022569 
C 0.751381 -1.293758 0.383519 -1.446132 0 -1.446132 
C -0.383519 -1.446132 -0.751381 -1.293758 -1.022569 -1.022569 
C -1.293758 -0.751381 -1.446132 -0.383519 -1.446132 0 
C -1.446132 0.383519 -1.293758 0.751381 -1.022569 1.022569 
C -0.751381 1.293758 -0.383519 1.446132 0 1.446132 
z
" style="stroke: #ff00ff; stroke-opacity: 0.2; stroke-width: 2"/>
    </defs>
    <g clip-path="url(#pd43486740f)">
     <use xlink:href="#mfd084e0e58" x="174.0375" y="289.90881" style="fill: #ffffff; fill-opacity: 0.2; stroke: #ff00ff; stroke-opacity: 0.2; stroke-width: 2"/>
    </g>
   </g>
   <g id="line2d_57">
    <path d="M 174.0375 289.90881 
" clip-path="url(#pd43486740f)" style="fill: none; stroke: #0000ff; stroke-opacity: 0.2; stroke-width: 1.5; stroke-linecap: square"/>
    <defs>
     <path id="m2659af30ec" d="M 0 1.446132 
C 0.383519 1.446132 0.751381 1.293758 1.022569 1.022569 
C 1.293758 0.751381 1.446132 0.383519 1.446132 0 
C 1.446132 -0.383519 1.293758 -0.751381 1.022569 -1.022569 
C 0.751381 -1.293758 0.383519 -1.446132 0 -1.446132 
C -0.383519 -1.446132 -0.751381 -1.293758 -1.022569 -1.022569 
C -1.293758 -0.751381 -1.446132 -0.383519 -1.446132 0 
C -1.446132 0.383519 -1.293758 0.751381 -1.022569 1.022569 
C -0.751381 1.293758 -0.383519 1.446132 0 1.446132 
z
" style="stroke: #ff00ff; stroke-opacity: 0.2; stroke-width: 2"/>
    </defs>
    <g clip-path="url(#pd43486740f)">
     <use xlink:href="#m2659af30ec" x="174.0375" y="289.90881" style="fill: #0000ff; fill-opacity: 0.2; stroke: #ff00ff; stroke-opacity: 0.2; stroke-width: 2"/>
    </g>
   </g>
   <g id="line2d_58">
    <path d="M 174.0375 256.793533 
" clip-path="url(#pd43486740f)" style="fill: none; stroke: #ffffff; stroke-opacity: 0.2; stroke-width: 1.5; stroke-linecap: square"/>
    <defs>
     <path id="m8175ac7253" d="M 0 5.181972 
C 1.374275 5.181972 2.692448 4.635966 3.664207 3.664207 
C 4.635966 2.692448 5.181972 1.374275 5.181972 0 
C 5.181972 -1.374275 4.635966 -2.692448 3.664207 -3.664207 
C 2.692448 -4.635966 1.374275 -5.181972 0 -5.181972 
C -1.374275 -5.181972 -2.692448 -4.635966 -3.664207 -3.664207 
C -4.635966 -2.692448 -5.181972 -1.374275 -5.181972 0 
C -5.181972 1.374275 -4.635966 2.692448 -3.664207 3.664207 
C -2.692448 4.635966 -1.374275 5.181972 0 5.181972 
z
" style="stroke: #ff00ff; stroke-opacity: 0.2; stroke-width: 2"/>
    </defs>
    <g clip-path="url(#pd43486740f)">
     <use xlink:href="#m8175ac7253" x="174.0375" y="256.793533" style="fill: #ffffff; fill-opacity: 0.2; stroke: #ff00ff; stroke-opacity: 0.2; stroke-width: 2"/>
    </g>
   </g>
   <g id="line2d_59">
    <path d="M 174.0375 256.793533 
" clip-path="url(#pd43486740f)" style="fill: none; stroke: #0000ff; stroke-opacity: 0.2; stroke-width: 1.5; stroke-linecap: square"/>
    <defs>
     <path id="m676d361f99" d="M 0 5.181972 
C 1.374275 5.181972 2.692448 4.635966 3.664207 3.664207 
C 4.635966 2.692448 5.181972 1.374275 5.181972 0 
C 5.181972 -1.374275 4.635966 -2.692448 3.664207 -3.664207 
C 2.692448 -4.635966 1.374275 -5.181972 0 -5.181972 
C -1.374275 -5.181972 -2.692448 -4.635966 -3.664207 -3.664207 
C -4.635966 -2.692448 -5.181972 -1.374275 -5.181972 0 
C -5.181972 1.374275 -4.635966 2.692448 -3.664207 3.664207 
C -2.692448 4.635966 -1.374275 5.181972 0 5.181972 
z
" style="stroke: #ff00ff; stroke-opacity: 0.2; stroke-width: 2"/>
    </defs>
    <g clip-path="url(#pd43486740f)">
     <use xlink:href="#m676d361f99" x="174.0375" y="256.793533" style="fill: #0000ff; fill-opacity: 0.2; stroke: #ff00ff; stroke-opacity: 0.2; stroke-width: 2"/>
    </g>
   </g>
   <g id="line2d_60">
    <path d="M 264.7125 83.575164 
" clip-path="url(#pd43486740f)" style="fill: none; stroke: #ffffff; stroke-opacity: 0.2; stroke-width: 1.5; stroke-linecap: square"/>
    <defs>
     <path id="m175f01d930" d="M 0 5.664015 
C 1.502114 5.664015 2.942908 5.067219 4.005064 4.005064 
C 5.067219 2.942908 5.664015 1.502114 5.664015 0 
C 5.664015 -1.502114 5.067219 -2.942908 4.005064 -4.005064 
C 2.942908 -5.067219 1.502114 -5.664015 0 -5.664015 
C -1.502114 -5.664015 -2.942908 -5.067219 -4.005064 -4.005064 
C -5.067219 -2.942908 -5.664015 -1.502114 -5.664015 0 
C -5.664015 1.502114 -5.067219 2.942908 -4.005064 4.005064 
C -2.942908 5.067219 -1.502114 5.664015 0 5.664015 
z
" style="stroke: #ff00ff; stroke-opacity: 0.2; stroke-width: 2"/>
    </defs>
    <g clip-path="url(#pd43486740f)">
     <use xlink:href="#m175f01d930" x="264.7125" y="83.575164" style="fill: #ffffff; fill-opacity: 0.2; stroke: #ff00ff; stroke-opacity: 0.2; stroke-width: 2"/>
    </g>
   </g>
   <g id="line2d_61">
    <path d="M 264.7125 83.575164 
" clip-path="url(#pd43486740f)" style="fill: none; stroke: #ff0000; stroke-opacity: 0.2; stroke-width: 1.5; stroke-linecap: square"/>
    <defs>
     <path id="m8de548e57f" d="M 0 5.664015 
C 1.502114 5.664015 2.942908 5.067219 4.005064 4.005064 
C 5.067219 2.942908 5.664015 1.502114 5.664015 0 
C 5.664015 -1.502114 5.067219 -2.942908 4.005064 -4.005064 
C 2.942908 -5.067219 1.502114 -5.664015 0 -5.664015 
C -1.502114 -5.664015 -2.942908 -5.067219 -4.005064 -4.005064 
C -5.067219 -2.942908 -5.664015 -1.502114 -5.664015 0 
C -5.664015 1.502114 -5.067219 2.942908 -4.005064 4.005064 
C -2.942908 5.067219 -1.502114 5.664015 0 5.664015 
z
" style="stroke: #ff00ff; stroke-opacity: 0.2; stroke-width: 2"/>
    </defs>
    <g clip-path="url(#pd43486740f)">
     <use xlink:href="#m8de548e57f" x="264.7125" y="83.575164" style="fill: #ff0000; fill-opacity: 0.2; stroke: #ff00ff; stroke-opacity: 0.2; stroke-width: 2"/>
    </g>
   </g>
   <g id="line2d_62">
    <path d="M 114.75 259.332017 
" clip-path="url(#pd43486740f)" style="fill: none; stroke: #ffffff; stroke-width: 1.5; stroke-linecap: square"/>
    <defs>
     <path id="mbb93968a02" d="M 0 7.5 
C 1.989023 7.5 3.896849 6.709753 5.303301 5.303301 
C 6.709753 3.896849 7.5 1.989023 7.5 0 
C 7.5 -1.989023 6.709753 -3.896849 5.303301 -5.303301 
C 3.896849 -6.709753 1.989023 -7.5 0 -7.5 
C -1.989023 -7.5 -3.896849 -6.709753 -5.303301 -5.303301 
C -6.709753 -3.896849 -7.5 -1.989023 -7.5 0 
C -7.5 1.989023 -6.709753 3.896849 -5.303301 5.303301 
C -3.896849 6.709753 -1.989023 7.5 0 7.5 
z
" style="stroke: #800080"/>
    </defs>
    <g clip-path="url(#pd43486740f)">
     <use xlink:href="#mbb93968a02" x="114.75" y="259.332017" style="fill: #ffffff; stroke: #800080"/>
    </g>
   </g>
   <g id="line2d_63">
    <path d="M 184.5 203.370507 
" clip-path="url(#pd43486740f)" style="fill: none; stroke: #ffffff; stroke-width: 1.5; stroke-linecap: square"/>
    <g clip-path="url(#pd43486740f)">
     <use xlink:href="#mbb93968a02" x="184.5" y="203.370507" style="fill: #ffffff; stroke: #800080"/>
    </g>
   </g>
   <g id="line2d_64">
    <path d="M 254.25 196.396261 
" clip-path="url(#pd43486740f)" style="fill: none; stroke: #ffffff; stroke-width: 1.5; stroke-linecap: square"/>
    <g clip-path="url(#pd43486740f)">
     <use xlink:href="#mbb93968a02" x="254.25" y="196.396261" style="fill: #ffffff; stroke: #800080"/>
    </g>
   </g>
   <g id="line2d_65">
    <path d="M 114.75 260.879375 
L 114.75 257.78466 
" clip-path="url(#pd43486740f)" style="fill: none; stroke: #800080; stroke-width: 3; stroke-linecap: square"/>
   </g>
   <g id="line2d_66">
    <path d="M 184.5 204.288745 
L 184.5 202.45227 
" clip-path="url(#pd43486740f)" style="fill: none; stroke: #800080; stroke-width: 3; stroke-linecap: square"/>
   </g>
   <g id="line2d_67">
    <path d="M 254.25 198.071872 
L 254.25 194.720651 
" clip-path="url(#pd43486740f)" style="fill: none; stroke: #800080; stroke-width: 3; stroke-linecap: square"/>
   </g>
   <g id="line2d_68">
    <path d="M 62.4375 55.554545 
" clip-path="url(#pd43486740f)" style="fill: none; stroke: #ffffff; stroke-width: 1.5; stroke-linecap: square"/>
    <defs>
     <path id="m9aba91f813" d="M 5 0 
L -5 -0 
" style="stroke: #ffa500"/>
    </defs>
    <g clip-path="url(#pd43486740f)">
     <use xlink:href="#m9aba91f813" x="62.4375" y="55.554545" style="fill: #ffffff; stroke: #ffa500"/>
    </g>
   </g>
   <g id="line2d_69">
    <path d="M 62.4375 68.29119 
" clip-path="url(#pd43486740f)" style="fill: none; stroke: #ffffff; stroke-width: 1.5; stroke-linecap: square"/>
    <defs>
     <path id="mfcb9689b44" d="M 5 0 
L -5 -0 
" style="stroke: #ff00ff"/>
    </defs>
    <g clip-path="url(#pd43486740f)">
     <use xlink:href="#mfcb9689b44" x="62.4375" y="68.29119" style="fill: #ffffff; stroke: #ff00ff"/>
    </g>
   </g>
   <g id="line2d_70">
    <path d="M 62.4375 81.027835 
" clip-path="url(#pd43486740f)" style="fill: none; stroke: #ffffff; stroke-width: 1.5; stroke-linecap: square"/>
    <defs>
     <path id="ma2ac36a788" d="M 5 0 
L -5 -0 
" style="stroke: #000000"/>
    </defs>
    <g clip-path="url(#pd43486740f)">
     <use xlink:href="#ma2ac36a788" x="62.4375" y="81.027835" style="fill: #ffffff; stroke: #000000"/>
    </g>
   </g>
   <g id="line2d_71">
    <path d="M 62.4375 93.76448 
" clip-path="url(#pd43486740f)" style="fill: none; stroke: #ffffff; stroke-width: 1.5; stroke-linecap: square"/>
    <defs>
     <path id="m4acd7e7bd2" d="M 0 5 
C 1.326016 5 2.597899 4.473168 3.535534 3.535534 
C 4.473168 2.597899 5 1.326016 5 0 
C 5 -1.326016 4.473168 -2.597899 3.535534 -3.535534 
C 2.597899 -4.473168 1.326016 -5 0 -5 
C -1.326016 -5 -2.597899 -4.473168 -3.535534 -3.535534 
C -4.473168 -2.597899 -5 -1.326016 -5 0 
C -5 1.326016 -4.473168 2.597899 -3.535534 3.535534 
C -2.597899 4.473168 -1.326016 5 0 5 
z
" style="stroke: #800080"/>
    </defs>
    <g clip-path="url(#pd43486740f)">
     <use xlink:href="#m4acd7e7bd2" x="62.4375" y="93.76448" style="fill: #ffffff; stroke: #800080"/>
    </g>
   </g>
   <g id="line2d_72">
    <path d="M 62.4375 106.501125 
" clip-path="url(#pd43486740f)" style="fill: none; stroke: #0000ff; stroke-width: 1.5; stroke-linecap: square"/>
    <defs>
     <path id="m835ea46d90" d="M 0 5 
C 1.326016 5 2.597899 4.473168 3.535534 3.535534 
C 4.473168 2.597899 5 1.326016 5 0 
C 5 -1.326016 4.473168 -2.597899 3.535534 -3.535534 
C 2.597899 -4.473168 1.326016 -5 0 -5 
C -1.326016 -5 -2.597899 -4.473168 -3.535534 -3.535534 
C -4.473168 -2.597899 -5 -1.326016 -5 0 
C -5 1.326016 -4.473168 2.597899 -3.535534 3.535534 
C -2.597899 4.473168 -1.326016 5 0 5 
z
" style="stroke: #0000ff"/>
    </defs>
    <g clip-path="url(#pd43486740f)">
     <use xlink:href="#m835ea46d90" x="62.4375" y="106.501125" style="fill: #0000ff; stroke: #0000ff"/>
    </g>
   </g>
   <g id="line2d_73">
    <path d="M 62.4375 119.237769 
" clip-path="url(#pd43486740f)" style="fill: none; stroke: #ff0000; stroke-width: 1.5; stroke-linecap: square"/>
    <defs>
     <path id="m5af44815b4" d="M 0 5 
C 1.326016 5 2.597899 4.473168 3.535534 3.535534 
C 4.473168 2.597899 5 1.326016 5 0 
C 5 -1.326016 4.473168 -2.597899 3.535534 -3.535534 
C 2.597899 -4.473168 1.326016 -5 0 -5 
C -1.326016 -5 -2.597899 -4.473168 -3.535534 -3.535534 
C -4.473168 -2.597899 -5 -1.326016 -5 0 
C -5 1.326016 -4.473168 2.597899 -3.535534 3.535534 
C -2.597899 4.473168 -1.326016 5 0 5 
z
" style="stroke: #ff0000"/>
    </defs>
    <g clip-path="url(#pd43486740f)">
     <use xlink:href="#m5af44815b4" x="62.4375" y="119.237769" style="fill: #ff0000; stroke: #ff0000"/>
    </g>
   </g>
   <g id="patch_3">
    <path d="M 45 315 
L 45 43.2 
" style="fill: none; stroke: #000000; stroke-width: 0.8; stroke-linejoin: miter; stroke-linecap: square"/>
   </g>
   <g id="patch_4">
    <path d="M 324 315 
L 324 43.2 
" style="fill: none; stroke: #000000; stroke-width: 0.8; stroke-linejoin: miter; stroke-linecap: square"/>
   </g>
   <g id="patch_5">
    <path d="M 45 315 
L 324 315 
" style="fill: none; stroke: #000000; stroke-width: 0.8; stroke-linejoin: miter; stroke-linecap: square"/>
   </g>
   <g id="patch_6">
    <path d="M 45 43.2 
L 324 43.2 
" style="fill: none; stroke: #000000; stroke-width: 0.8; stroke-linejoin: miter; stroke-linecap: square"/>
   </g>
   <g id="text_11">
    <text style="font: 12px 'sans-serif'; text-anchor: start" x="72.9" y="60.649203" transform="rotate(-0, 72.9, 60.649203)">Adult only</text>
   </g>
   <g id="text_12">
    <text style="font: 12px 'sans-serif'; text-anchor: start" x="72.9" y="73.385848" transform="rotate(-0, 72.9, 73.385848)">Paediatric only</text>
   </g>
   <g id="text_13">
    <text style="font: 12px 'sans-serif'; text-anchor: start" x="72.9" y="86.122493" transform="rotate(-0, 72.9, 86.122493)">Mixed</text>
   </g>
   <g id="text_14">
    <text style="font: 12px 'sans-serif'; text-anchor: start" x="72.9" y="98.859138" transform="rotate(-0, 72.9, 98.859138)">Weighted Mean.</text>
   </g>
   <g id="text_15">
    <text style="font: 12px 'sans-serif'; text-anchor: start" x="72.9" y="111.595783" transform="rotate(-0, 72.9, 111.595783)">HIC</text>
   </g>
   <g id="text_16">
    <text style="font: 12px 'sans-serif'; text-anchor: start" x="72.9" y="124.332427" transform="rotate(-0, 72.9, 124.332427)">LMIC</text>
   </g>
   <g id="text_17">
    <text style="font: 12px 'sans-serif'; text-anchor: middle" x="184.5" y="37.2" transform="rotate(-0, 184.5, 37.2)">SuppFig1C</text>
   </g>
  </g>
 </g>
 <defs>
  <clipPath id="pd43486740f">
   <rect x="45" y="43.2" width="279" height="271.8"/>
  </clipPath>
 </defs>
</svg>
